<svg xmlns="http://www.w3.org/2000/svg" viewBox="0 0 148.386 171.342"><defs><style>.cls-1{fill:#faad00;}.cls-2{fill:#fa7600;}.cls-3{fill:none;stroke:#fa7600;stroke-linecap:round;stroke-linejoin:round;stroke-width:2.835px;}</style></defs><title>Desert-Hills</title><g id="Layer_2" data-name="Layer 2"><g id="Layer_1-2" data-name="Layer 1"><polygon class="cls-1" points="1.417 127.688 1.417 43.654 74.193 1.637 146.97 43.654 146.97 127.688 74.193 169.705 1.417 127.688"/><path class="cls-2" d="M74.193,3.273l71.359,41.2v82.4l-71.359,41.2L2.835,126.87v-82.4l71.358-41.2m0-3.273L0,42.835v85.671l74.193,42.836,74.193-42.836V42.835L74.193,0Z"/><path class="cls-3" d="M64.669,79.188c7.95-7.44,21.67-12.31,35.19-12.31,17.58,0,29.48,8.23,34.63,19.62"/><path class="cls-3" d="M78.839,85.508a38.746,38.746,0,0,0-14.17-6.32,53.089,53.089,0,0,0-12.15-1.35c-17.58,0-33.48,7.68-38.63,21.06"/><path class="cls-3" d="M58.31,109.162c.924-13.615,14.05-25.32,31.63-25.32s38.48,9.46,43.63,25.32"/></g></g></svg>