<svg xmlns="http://www.w3.org/2000/svg" viewBox="0 0 148.386 171.342"><defs><style>.cls-1{fill:#494950;}.cls-2{fill:#969696;}.cls-3{fill:#fff;}</style></defs><title>Frost-Mountain</title><g id="Layer_2" data-name="Layer 2"><g id="Layer_1-2" data-name="Layer 1"><polygon class="cls-1" points="1.418 127.688 1.418 43.654 74.193 1.637 146.969 43.654 146.969 127.688 74.193 169.705 1.418 127.688"/><path class="cls-2" d="M74.193,3.273l71.359,41.2v82.4l-71.359,41.2L2.835,126.87v-82.4l71.358-41.2m0-3.273L0,42.835v85.671l74.193,42.836,74.193-42.836V42.835L74.193,0Z"/><polygon class="cls-3" points="72.085 32.198 60.844 65.153 66.569 78.45 74.917 67.207 86.341 81.696 88.849 73.005 72.085 32.198 72.085 32.198"/><polygon class="cls-3" points="41.038 69.674 34.799 86.896 40.068 84.166 45.392 87.242 47.891 76.935 41.038 69.674 41.038 69.674"/><polygon class="cls-2" points="58.913 70.813 54.453 83.888 51.175 80.415 48.028 93.399 39.963 88.739 32.784 92.458 23.406 118.347 41.629 124.989 57.39 120.172 73.262 124.352 88.646 119.729 108.39 125.144 124.98 118.347 114.581 99.24 106.199 104.964 97.85 99.044 92.021 108.23 88.633 106.081 97.013 92.876 91.302 78.975 88.029 90.316 75.013 73.808 65.639 86.433 58.913 70.813 58.913 70.813"/><polygon class="cls-3" points="106.799 84.941 100.003 95.652 106.243 100.076 112.654 95.698 106.8 84.941 106.799 84.941"/></g></g></svg>