<svg xmlns="http://www.w3.org/2000/svg" viewBox="0 0 148.386 171.342"><defs><style>.cls-1{fill:#00d28f;}.cls-2{fill:#008f59;}</style></defs><title>Grass-DeepForest</title><g id="Layer_2" data-name="Layer 2"><g id="Layer_1-2" data-name="Layer 1"><polygon class="cls-1" points="1.417 127.688 1.417 43.654 74.194 1.636 146.969 43.654 146.969 127.688 74.194 169.705 1.417 127.688"/><path class="cls-2" d="M74.193,3.273l71.359,41.2v82.4l-71.359,41.2L2.835,126.87v-82.4l71.358-41.2m0-3.273L0,42.835v85.671l74.193,42.836,74.193-42.836V42.835L74.193,0Z"/><path class="cls-2" d="M93.768,109.528a1.417,1.417,0,0,1-.59-2.706,51.325,51.325,0,0,1,10.148-3.614,42.528,42.528,0,0,0,.178-14.774,30.431,30.431,0,0,0-3.373-6.228,1.415,1.415,0,0,1-.288-.893,13.135,13.135,0,0,1-6.4,1.941,8.824,8.824,0,0,1-4.4,3.039,5.632,5.632,0,0,1-1.378.179,5.305,5.305,0,0,1-3.48-1.365,5.68,5.68,0,0,1-1.066-7.975,12.3,12.3,0,0,1-1.318-8.194,11,11,0,0,1,4.912-6.574c-1.288-3.248-.1-6.69,3.059-8.822a9.232,9.232,0,0,1,5.179-1.6A9.009,9.009,0,0,1,99.354,53.1c.4.169.533.223.582.241a1.624,1.624,0,0,1,.178.077,1.422,1.422,0,0,1,.163-.588,7.971,7.971,0,0,1,6.8-4.034c.2-.013.4-.021.6-.022h.073c.2,0,.36,0,.518.012a10.405,10.405,0,0,1,7.465,3.609,17.138,17.138,0,0,1,7.487-1.762,15.193,15.193,0,0,1,8.128,2.309,13.173,13.173,0,0,1,6.193,12.984,3.858,3.858,0,0,1,2.922,3.253,4.53,4.53,0,0,1-1.384,4.312,9.2,9.2,0,0,1,2.851,5.458,7.162,7.162,0,0,1-2.232,6.073,8.8,8.8,0,0,1-6.27,2.825c-.233,0-.467-.01-.7-.032a9.07,9.07,0,0,1-6.543-4.021,7.889,7.889,0,0,1-1.848.226,6.2,6.2,0,0,1-3.935-1.33,5.133,5.133,0,0,1-1.9-4.4,1.44,1.44,0,0,1-.319.514,23.7,23.7,0,0,0-3.274,4.186,28.107,28.107,0,0,1,2.637-1.2,1.4,1.4,0,0,1,.524-.1,1.417,1.417,0,0,1,.986,2.436,20.316,20.316,0,0,0-6.481,11.135,20.733,20.733,0,0,0,2.316,7.885,47.724,47.724,0,0,1,10.217,3.686,1.417,1.417,0,0,1-.605,2.7Zm9.16-31.183a1.422,1.422,0,0,1,1.1.544,26.53,26.53,0,0,1,2.7,4.361q.213-.483.418-.974A44.431,44.431,0,0,0,104.7,72.181a10.6,10.6,0,0,1-1.786,6.164Zm15.643-.72c.007-.043.014-.087.022-.13l-.049-.017C118.55,77.505,118.569,77.6,118.571,77.625Zm-3.731-2.388.021,0-.016-.015Zm-5.822-5.992c.454,1.1.863,2.226,1.229,3.388.067-.25.129-.492.189-.722a1.418,1.418,0,0,1,1.258-1.057c.038,0,.076,0,.115,0a1.417,1.417,0,0,1,.363.047,10.9,10.9,0,0,1-.369-1.486,4.8,4.8,0,0,1-.9.08A8.019,8.019,0,0,1,109.018,69.245Z"/><path class="cls-1" d="M107.747,50.19c.151,0,.3,0,.453.011a9.031,9.031,0,0,1,6.566,3.255l.573.714.817-.407a15.848,15.848,0,0,1,7.06-1.714,13.8,13.8,0,0,1,7.372,2.09,11.759,11.759,0,0,1,5.51,11.866l-.156,1.139,1.139.141a2.414,2.414,0,0,1,1.986,2.16,3.059,3.059,0,0,1-1.082,3.1l-1.143.812,1.033.95a7.919,7.919,0,0,1,2.643,4.8,5.779,5.779,0,0,1-1.83,4.913,7.409,7.409,0,0,1-5.266,2.407c-.19,0-.381-.009-.571-.026a7.863,7.863,0,0,1-5.63-3.592l-.46-.638-.755.2a6.515,6.515,0,0,1-1.672.226,4.747,4.747,0,0,1-3.037-1.009,3.882,3.882,0,0,1-1.268-4.059l.212-1.025-1-.3a8.865,8.865,0,0,1-6.083-7.309l-.19-1.288-1.249.361a3.01,3.01,0,0,1-.82.1,5.7,5.7,0,0,1-2.992-.822l-1.048-.817-.642,1.163a4.1,4.1,0,0,1-2.286,1.887l-.881.3.126.923a9.441,9.441,0,0,1-2.153,7.765,10.741,10.741,0,0,1-7.773,3.368l-.505.023-.323.395a7.5,7.5,0,0,1-3.732,2.658,4.216,4.216,0,0,1-1.031.136,3.93,3.93,0,0,1-2.573-1.036,4.314,4.314,0,0,1-.725-6.2l.4-.554-.3-.612a10.985,10.985,0,0,1-1.28-7.393c.5-2.154,1.907-4.1,4.511-5.847l.786-.524-.375-.87c-1.274-2.951.022-5.658,2.46-7.3a7.88,7.88,0,0,1,4.386-1.354,7.628,7.628,0,0,1,3.785,1.012,7.6,7.6,0,0,1,1.383.642h3.561l-2.141-1.523a6.582,6.582,0,0,1,5.634-3.285c.171-.01.344-.017.517-.018h.066m-.214,19.479h0m0,0h0l.16.076a44.186,44.186,0,0,1,2.476,8.32c.606-1.917,1.134-3.851,1.64-5.8a11.35,11.35,0,0,0,1.648,2.666c-.63,2.329-1.325,4.666-2.2,7a27.2,27.2,0,0,1,3.926-5.32,10.568,10.568,0,0,0,1.979,1.2,23.841,23.841,0,0,0-5.218,7.947c-.1.4-.195.812-.28,1.226a19.343,19.343,0,0,1,6.4-3.88,21.716,21.716,0,0,0-6.925,12.063,22.059,22.059,0,0,0,2.825,9.235,44.726,44.726,0,0,1,10.533,3.71H93.768a47.384,47.384,0,0,1,10.765-3.706,44.01,44.01,0,0,0,.338-16.381,31.883,31.883,0,0,0-3.611-6.675,11.249,11.249,0,0,0,1.458-1.367c.064-.073.128-.147.19-.221a31.143,31.143,0,0,1,3.789,6.774l.019-.007c.708-1.344,1.33-2.7,1.884-4.063A46.046,46.046,0,0,0,105.8,71.1a6.29,6.29,0,0,0,1.732-1.432m.214-22.314h-.088c-.231,0-.454.012-.674.025A9.483,9.483,0,0,0,99.4,51.531a10.343,10.343,0,0,0-4.455-1,10.644,10.644,0,0,0-5.971,1.838c-3.405,2.3-4.86,5.9-3.932,9.461a12.058,12.058,0,0,0-4.625,6.789,13.244,13.244,0,0,0,1.091,8.421A7.048,7.048,0,0,0,83.271,86.2a6.755,6.755,0,0,0,4.386,1.693,7.044,7.044,0,0,0,1.726-.223,9.94,9.94,0,0,0,4.738-3.041,14.887,14.887,0,0,0,5.054-1.33,29.877,29.877,0,0,1,2.961,5.546,40.99,40.99,0,0,1-.044,13.2,55.405,55.405,0,0,0-9.5,3.491,2.834,2.834,0,0,0,1.179,5.412H124.5a2.835,2.835,0,0,0,1.208-5.4,50.809,50.809,0,0,0-9.861-3.64,19.429,19.429,0,0,1-1.841-6.561,18.809,18.809,0,0,1,6.033-10.206,2.814,2.814,0,0,0,.5-.651,7.856,7.856,0,0,0,3.791.947,8.911,8.911,0,0,0,1.266-.091,10.215,10.215,0,0,0,7,3.882c.273.024.55.037.824.037A10.187,10.187,0,0,0,140.7,86.02a8.627,8.627,0,0,0,2.635-7.233,10.251,10.251,0,0,0-2.359-5.324,6.125,6.125,0,0,0,.877-4.55,5.423,5.423,0,0,0-2.813-3.958A14.516,14.516,0,0,0,132.1,51.742a16.625,16.625,0,0,0-8.885-2.528,18.333,18.333,0,0,0-7.143,1.471,11.9,11.9,0,0,0-7.729-3.315q-.3-.015-.6-.015ZM107.533,72.5h0Zm-2.641,5.234,0-.008,0,.015-.007-.007Z"/><path class="cls-2" d="M18.629,109.528a1.417,1.417,0,0,1-.59-2.706,51.31,51.31,0,0,1,10.149-3.614,42.527,42.527,0,0,0,.177-14.774,30.383,30.383,0,0,0-3.373-6.228,1.415,1.415,0,0,1-.288-.893,13.135,13.135,0,0,1-6.4,1.941,8.826,8.826,0,0,1-4.4,3.039,5.645,5.645,0,0,1-1.378.179,5.307,5.307,0,0,1-3.481-1.365,5.68,5.68,0,0,1-1.066-7.975,12.3,12.3,0,0,1-1.318-8.194,11,11,0,0,1,4.913-6.574c-1.289-3.248-.105-6.69,3.058-8.822a9.237,9.237,0,0,1,5.179-1.6A9.006,9.006,0,0,1,24.215,53.1c.4.169.533.223.582.241a1.636,1.636,0,0,1,.179.077,1.392,1.392,0,0,1,.163-.588,7.97,7.97,0,0,1,6.8-4.034c.2-.013.4-.021.6-.022h.074c.2,0,.359,0,.517.012a10.405,10.405,0,0,1,7.465,3.609,17.142,17.142,0,0,1,7.487-1.762,15.191,15.191,0,0,1,8.128,2.309A13.172,13.172,0,0,1,62.4,65.925a3.858,3.858,0,0,1,2.921,3.253,4.527,4.527,0,0,1-1.383,4.312,9.194,9.194,0,0,1,2.85,5.458,7.162,7.162,0,0,1-2.232,6.073,8.8,8.8,0,0,1-6.27,2.825c-.233,0-.466-.01-.7-.032a9.07,9.07,0,0,1-6.543-4.021,7.889,7.889,0,0,1-1.848.226,6.2,6.2,0,0,1-3.935-1.33,5.138,5.138,0,0,1-1.9-4.4,1.413,1.413,0,0,1-.319.514,23.7,23.7,0,0,0-3.273,4.186,27.968,27.968,0,0,1,2.636-1.2,1.4,1.4,0,0,1,.525-.1,1.417,1.417,0,0,1,.985,2.436,20.315,20.315,0,0,0-6.48,11.135,20.732,20.732,0,0,0,2.315,7.885,47.705,47.705,0,0,1,10.217,3.686,1.417,1.417,0,0,1-.605,2.7Zm9.16-31.183a1.422,1.422,0,0,1,1.1.544,26.53,26.53,0,0,1,2.7,4.361q.215-.483.418-.974a44.486,44.486,0,0,0-2.445-10.095,10.609,10.609,0,0,1-1.786,6.164Zm15.644-.72c.007-.043.013-.087.021-.13l-.049-.017C43.411,77.505,43.43,77.6,43.433,77.625ZM39.7,75.237l.022,0-.017-.016Zm-5.822-5.992c.454,1.1.863,2.226,1.23,3.388.066-.25.128-.492.188-.722a1.418,1.418,0,0,1,1.258-1.057c.038,0,.076,0,.115,0a1.417,1.417,0,0,1,.363.047,10.9,10.9,0,0,1-.369-1.486,4.788,4.788,0,0,1-.9.08A8.019,8.019,0,0,1,33.879,69.245Z"/><path class="cls-1" d="M32.608,50.19c.151,0,.3,0,.454.011a9.03,9.03,0,0,1,6.565,3.255l.573.714.817-.407a15.849,15.849,0,0,1,7.061-1.714,13.806,13.806,0,0,1,7.372,2.09,11.76,11.76,0,0,1,5.509,11.866L60.8,67.144l1.139.141a2.416,2.416,0,0,1,1.986,2.16,3.059,3.059,0,0,1-1.083,3.1l-1.142.812,1.032.95a7.919,7.919,0,0,1,2.643,4.8,5.776,5.776,0,0,1-1.83,4.913,7.409,7.409,0,0,1-5.265,2.407c-.191,0-.381-.009-.571-.026a7.862,7.862,0,0,1-5.631-3.592l-.46-.638-.755.2A6.515,6.515,0,0,1,49.2,82.6a4.744,4.744,0,0,1-3.036-1.009,3.88,3.88,0,0,1-1.269-4.059l.213-1.025-1-.3A8.864,8.864,0,0,1,38.018,68.9l-.19-1.288-1.25.361a3,3,0,0,1-.819.1,5.711,5.711,0,0,1-2.993-.822l-1.048-.817L31.077,67.6a4.1,4.1,0,0,1-2.287,1.887l-.88.3.125.923a9.441,9.441,0,0,1-2.153,7.765,10.741,10.741,0,0,1-7.773,3.368l-.505.023-.322.395a7.5,7.5,0,0,1-3.733,2.658,4.216,4.216,0,0,1-1.031.136,3.926,3.926,0,0,1-2.572-1.036,4.313,4.313,0,0,1-.725-6.2l.394-.554-.3-.612a10.978,10.978,0,0,1-1.279-7.393c.5-2.154,1.906-4.1,4.511-5.847l.786-.524-.376-.87c-1.274-2.951.023-5.658,2.46-7.3A7.883,7.883,0,0,1,19.8,53.363a7.631,7.631,0,0,1,3.786,1.012,7.616,7.616,0,0,1,1.382.642h3.562l-2.142-1.523a6.582,6.582,0,0,1,5.635-3.285c.171-.01.343-.017.516-.018h.066m-.214,19.479H32.4m-.005,0h0c.052.026.106.051.159.076a44.038,44.038,0,0,1,2.476,8.32c.606-1.917,1.134-3.851,1.64-5.8a11.383,11.383,0,0,0,1.648,2.666c-.629,2.329-1.325,4.666-2.194,7a27.162,27.162,0,0,1,3.926-5.32,10.528,10.528,0,0,0,1.978,1.2,23.822,23.822,0,0,0-5.217,7.947c-.1.4-.2.812-.281,1.226a19.357,19.357,0,0,1,6.4-3.88,21.717,21.717,0,0,0-6.926,12.063A22.059,22.059,0,0,0,38.83,104.4a44.726,44.726,0,0,1,10.533,3.71H18.629a47.4,47.4,0,0,1,10.765-3.706,43.989,43.989,0,0,0,.338-16.381,31.837,31.837,0,0,0-3.611-6.675,11.249,11.249,0,0,0,1.458-1.367c.064-.073.128-.147.19-.221a31.147,31.147,0,0,1,3.79,6.774l.019-.007c.707-1.344,1.33-2.7,1.883-4.063a46,46,0,0,0-2.8-11.365,6.276,6.276,0,0,0,1.732-1.432m.214-22.314H32.52c-.231,0-.454.012-.674.025a9.481,9.481,0,0,0-7.587,4.151,10.344,10.344,0,0,0-4.456-1,10.644,10.644,0,0,0-5.971,1.838c-3.4,2.3-4.86,5.9-3.931,9.461a12.06,12.06,0,0,0-4.626,6.789,13.251,13.251,0,0,0,1.091,8.421A7.048,7.048,0,0,0,8.132,86.2a6.755,6.755,0,0,0,4.386,1.693,7.044,7.044,0,0,0,1.726-.223,9.947,9.947,0,0,0,4.739-3.041,14.881,14.881,0,0,0,5.053-1.33A29.818,29.818,0,0,1,27,88.842a40.99,40.99,0,0,1-.044,13.2,55.436,55.436,0,0,0-9.5,3.491,2.835,2.835,0,0,0,1.179,5.412H49.363a2.835,2.835,0,0,0,1.209-5.4,50.815,50.815,0,0,0-9.862-3.64,19.429,19.429,0,0,1-1.841-6.561A18.81,18.81,0,0,1,44.9,85.14a2.81,2.81,0,0,0,.5-.651,7.856,7.856,0,0,0,3.791.947,8.935,8.935,0,0,0,1.267-.091,10.212,10.212,0,0,0,7,3.882c.273.024.551.037.825.037a10.188,10.188,0,0,0,7.277-3.244A8.633,8.633,0,0,0,68.2,78.787a10.261,10.261,0,0,0-2.36-5.324,6.12,6.12,0,0,0,.877-4.55A5.419,5.419,0,0,0,63.9,64.955a14.517,14.517,0,0,0-6.939-13.213,16.624,16.624,0,0,0-8.884-2.528,18.334,18.334,0,0,0-7.144,1.471,11.9,11.9,0,0,0-7.729-3.315q-.3-.015-.6-.015ZM32.394,72.5h0Zm-2.641,5.234,0-.008,0,.015-.007-.007Z"/><path class="cls-2" d="M56.2,122.569a1.417,1.417,0,0,1-.589-2.706,51.316,51.316,0,0,1,10.148-3.615,42.552,42.552,0,0,0,.178-14.774,30.48,30.48,0,0,0-3.373-6.227,1.415,1.415,0,0,1-.288-.893,13.148,13.148,0,0,1-6.4,1.94,8.835,8.835,0,0,1-4.4,3.04,5.659,5.659,0,0,1-1.379.179,5.305,5.305,0,0,1-3.48-1.365,5.68,5.68,0,0,1-1.067-7.975,12.305,12.305,0,0,1-1.317-8.2,11,11,0,0,1,4.912-6.573c-1.288-3.249-.105-6.69,3.058-8.822a9.229,9.229,0,0,1,5.178-1.6,9,9,0,0,1,4.412,1.154c.4.169.534.223.582.241a1.557,1.557,0,0,1,.179.077,1.422,1.422,0,0,1,.163-.588,7.976,7.976,0,0,1,6.8-4.035c.2-.013.4-.021.6-.022h.071c.2,0,.365,0,.527.013a10.389,10.389,0,0,1,7.457,3.607,17.158,17.158,0,0,1,7.488-1.761,15.2,15.2,0,0,1,8.128,2.307,13.177,13.177,0,0,1,6.193,12.986,3.862,3.862,0,0,1,2.923,3.253,4.533,4.533,0,0,1-1.385,4.312,9.2,9.2,0,0,1,2.851,5.458,7.166,7.166,0,0,1-2.233,6.073,8.8,8.8,0,0,1-6.272,2.824c-.233,0-.465-.009-.7-.03a9.084,9.084,0,0,1-6.543-4.023,7.9,7.9,0,0,1-1.848.226,6.19,6.19,0,0,1-3.935-1.331,5.126,5.126,0,0,1-1.9-4.4,1.429,1.429,0,0,1-.32.514,23.755,23.755,0,0,0-3.274,4.187,28.506,28.506,0,0,1,2.638-1.2,1.417,1.417,0,0,1,1.51,2.335A20.323,20.323,0,0,0,75.005,108.3a20.739,20.739,0,0,0,2.315,7.885,47.736,47.736,0,0,1,10.217,3.687,1.417,1.417,0,0,1-.6,2.7Zm9.165-31.183a1.422,1.422,0,0,1,1.092.544,26.462,26.462,0,0,1,2.7,4.361q.215-.483.418-.974a44.468,44.468,0,0,0-2.445-10.1,10.6,10.6,0,0,1-1.786,6.165ZM81,90.666c.007-.043.014-.087.022-.13l-.049-.016C80.981,90.545,81,90.642,81,90.666Zm-3.731-2.388.021-.005-.016-.016Zm-5.823-5.992c.454,1.1.864,2.225,1.23,3.387.066-.25.129-.492.188-.722a1.419,1.419,0,0,1,1.258-1.057c.038,0,.076,0,.115,0a1.425,1.425,0,0,1,.364.047,10.6,10.6,0,0,1-.369-1.485,4.824,4.824,0,0,1-.907.079A8.065,8.065,0,0,1,71.448,82.286Z"/><path class="cls-1" d="M70.178,63.23q.226,0,.453.012A9.026,9.026,0,0,1,77.2,66.5l.573.714.816-.406a15.855,15.855,0,0,1,7.061-1.714,13.8,13.8,0,0,1,7.372,2.09,11.758,11.758,0,0,1,5.509,11.866l-.155,1.139,1.139.14a2.417,2.417,0,0,1,1.986,2.161,3.057,3.057,0,0,1-1.082,3.1l-1.143.813,1.033.949a7.931,7.931,0,0,1,2.643,4.8,5.78,5.78,0,0,1-1.831,4.913,7.408,7.408,0,0,1-5.265,2.406c-.19,0-.381-.008-.571-.025a7.864,7.864,0,0,1-5.631-3.592l-.459-.638-.756.2a6.512,6.512,0,0,1-1.672.227,4.744,4.744,0,0,1-3.036-1.009,3.882,3.882,0,0,1-1.269-4.059l.213-1.025-1-.3a8.861,8.861,0,0,1-6.083-7.309l-.19-1.287-1.249.361a3.015,3.015,0,0,1-.82.1,5.714,5.714,0,0,1-2.992-.822l-1.049-.817-.641,1.162a4.093,4.093,0,0,1-2.286,1.887l-.881.3.125.923a9.435,9.435,0,0,1-2.153,7.765,10.747,10.747,0,0,1-7.772,3.368l-.505.023-.323.4a7.489,7.489,0,0,1-3.733,2.657,4.156,4.156,0,0,1-1.03.137,3.93,3.93,0,0,1-2.573-1.037,4.313,4.313,0,0,1-.725-6.2l.4-.555-.3-.611a10.98,10.98,0,0,1-1.28-7.393c.5-2.155,1.906-4.1,4.511-5.848l.786-.524-.376-.869c-1.274-2.951.023-5.658,2.461-7.3A7.88,7.88,0,0,1,57.373,66.4a7.63,7.63,0,0,1,3.785,1.012,7.654,7.654,0,0,1,1.382.641H66.1L63.96,66.534A6.585,6.585,0,0,1,69.6,63.25c.171-.011.344-.017.516-.019h.067m-.215,19.48h.005m-.005,0h0c.053.026.106.051.16.075a44.152,44.152,0,0,1,2.475,8.32c.606-1.917,1.134-3.851,1.641-5.8a11.311,11.311,0,0,0,1.648,2.665c-.63,2.33-1.326,4.667-2.2,7a27.166,27.166,0,0,1,3.926-5.319,10.563,10.563,0,0,0,1.979,1.2A23.814,23.814,0,0,0,74.379,98.8c-.1.4-.2.812-.281,1.226a19.357,19.357,0,0,1,6.4-3.88,21.723,21.723,0,0,0-6.926,12.063,22.068,22.068,0,0,0,2.825,9.235,44.725,44.725,0,0,1,10.534,3.709H56.2a47.433,47.433,0,0,1,10.765-3.706,44,44,0,0,0,.338-16.38A31.823,31.823,0,0,0,63.69,94.39a11.059,11.059,0,0,0,1.459-1.367c.064-.072.127-.146.189-.22a31.124,31.124,0,0,1,3.79,6.774l.019-.008a44.5,44.5,0,0,0,1.883-4.063,45.992,45.992,0,0,0-2.8-11.364,6.271,6.271,0,0,0,1.731-1.432M70.178,60.4h-.089c-.231,0-.455.011-.676.025a9.482,9.482,0,0,0-7.585,4.151,10.329,10.329,0,0,0-4.455-1A10.65,10.65,0,0,0,51.4,65.407c-3.405,2.3-4.861,5.9-3.932,9.461a12.066,12.066,0,0,0-4.626,6.789,13.255,13.255,0,0,0,1.092,8.422A7.049,7.049,0,0,0,45.7,99.238a6.758,6.758,0,0,0,4.387,1.692,7.044,7.044,0,0,0,1.726-.223,9.935,9.935,0,0,0,4.738-3.04,14.875,14.875,0,0,0,5.053-1.33,29.84,29.84,0,0,1,2.961,5.545,41.018,41.018,0,0,1-.043,13.2,55.443,55.443,0,0,0-9.5,3.491,2.835,2.835,0,0,0,1.18,5.413H86.933a2.835,2.835,0,0,0,1.208-5.4,50.743,50.743,0,0,0-9.861-3.64,19.412,19.412,0,0,1-1.841-6.562,18.8,18.8,0,0,1,6.033-10.2,2.836,2.836,0,0,0,.5-.651,7.852,7.852,0,0,0,3.79.947,9.074,9.074,0,0,0,1.267-.091,10.213,10.213,0,0,0,7,3.881c.274.025.551.037.825.037a10.187,10.187,0,0,0,7.277-3.244,8.624,8.624,0,0,0,2.635-7.232,10.267,10.267,0,0,0-2.359-5.325,6.119,6.119,0,0,0,.876-4.55A5.421,5.421,0,0,0,101.47,78a14.516,14.516,0,0,0-6.939-13.213,16.615,16.615,0,0,0-8.884-2.527,18.346,18.346,0,0,0-7.143,1.47,11.9,11.9,0,0,0-7.729-3.314c-.2-.01-.4-.015-.6-.015Zm-.215,25.149h0Zm-2.64,5.234,0-.008,0,.015-.007-.007Z"/></g></g></svg>