<svg xmlns="http://www.w3.org/2000/svg" viewBox="0 0 148.386 171.342"><defs><style>.cls-1{fill:#494950;}.cls-2{fill:#9f968c;}</style></defs><title>Mountain</title><g id="Layer_2" data-name="Layer 2"><g id="Layer_1-2" data-name="Layer 1"><polygon class="cls-1" points="1.417 127.688 1.417 43.654 74.193 1.637 146.969 43.654 146.969 127.688 74.193 169.705 1.417 127.688"/><path class="cls-2" d="M74.193,3.273l71.359,41.2v82.4l-71.359,41.2L2.835,126.87v-82.4l71.358-41.2m0-3.273L0,42.835v85.671l74.193,42.836,74.193-42.836V42.835L74.193,0Z"/><path class="cls-2" d="M89.26,35.608,65.839,69.184,64.444,84.04,45.96,60.7l-14.7,23.915L28.977,96.663,22.7,111.2l.243.108,10.049,12.429L53.6,119.161l5.432-5.453L44.114,93.636l9.746-5.324L46.454,67.6l29.26,38.685,1.932-3.156-4.1-18.462,14.34-6.14.065-33.575L99.05,83.31,89.475,96.791l-1.932,8.459L76.637,117.014l29.11-7.321-7.964-4.551,7.406-6.826-5.968-5,11.335-15.522,1.31,19.45,11.163,10.713,2.662-2.791L115.6,95.482l-1.61-24.216-12.3,7.256Z"/></g></g></svg>