<svg xmlns="http://www.w3.org/2000/svg" viewBox="0 0 148.386 171.342"><defs><style>.cls-1,.cls-3{fill:#cfff7d;}.cls-2{fill:#97d758;}.cls-3{stroke:#97d758;stroke-linecap:round;stroke-linejoin:round;stroke-width:2.835px;}</style></defs><title>Plains-Hill-Forest</title><g id="Layer_2" data-name="Layer 2"><g id="Layer_1-2" data-name="Layer 1"><polygon class="cls-1" points="1.417 127.688 1.417 43.654 74.193 1.637 146.969 43.654 146.969 127.688 74.193 169.705 1.417 127.688"/><path class="cls-2" d="M74.193,3.273l71.359,41.2v82.4l-71.359,41.2L2.835,126.87v-82.4l71.358-41.2m0-3.273L0,42.836v85.67l74.193,42.836,74.193-42.836V42.836L74.193,0Z"/><path class="cls-2" d="M66.561,37.762c-1.8,3.952-3.8,7.921-7.961,11.031a35.808,35.808,0,0,0,3.606,1.1c-1.577,2.417-4.265,4.7-6.721,6.76a30.955,30.955,0,0,0,4.278,1.809,39.119,39.119,0,0,1-6.708,8.065,34.7,34.7,0,0,0,6.437,2.817,51.089,51.089,0,0,1-9.319,9.836c6.656,3.425,12.537,5.014,18.379,4.833.232,0,.478.013.71.013v-.038c5.157-.285,10.288-1.939,15.923-4.912a36.057,36.057,0,0,1-10.52-9.46,31.468,31.468,0,0,0,6.888-2.986,27.144,27.144,0,0,1-7.612-7.948,27.046,27.046,0,0,0,4.666-1.939A24.32,24.32,0,0,1,71.279,50.1a28.12,28.12,0,0,0,4.071-1.215c-4.976-2.812-6.32-6.87-8.789-11.121Z"/><path class="cls-2" d="M65.049,86.209l-.349,9.1,5.558.078-.789-9.034c-1.5,0-2.985-.039-4.42-.142Z"/><path class="cls-2" d="M66.561,37.762c-1.8,3.952-3.8,7.921-7.961,11.031a35.808,35.808,0,0,0,3.606,1.1c-1.577,2.417-4.265,4.7-6.721,6.76a30.955,30.955,0,0,0,4.278,1.809,39.119,39.119,0,0,1-6.708,8.065,34.7,34.7,0,0,0,6.437,2.817,51.089,51.089,0,0,1-9.319,9.836c6.656,3.425,12.537,5.014,18.379,4.833.232,0,.478.013.71.013v-.038c5.157-.285,10.288-1.939,15.923-4.912a36.057,36.057,0,0,1-10.52-9.46,31.468,31.468,0,0,0,6.888-2.986,27.144,27.144,0,0,1-7.612-7.948,27.046,27.046,0,0,0,4.666-1.939A24.32,24.32,0,0,1,71.279,50.1a28.12,28.12,0,0,0,4.071-1.215c-4.976-2.812-6.32-6.87-8.789-11.121Z"/><path class="cls-2" d="M65.049,86.209l-.349,9.1,5.558.078-.789-9.034c-1.5,0-2.985-.039-4.42-.142Z"/><path class="cls-1" d="M66.561,37.762c2.469,4.251,3.813,8.309,8.789,11.121A28.12,28.12,0,0,1,71.279,50.1a24.32,24.32,0,0,0,7.328,6.643,27.046,27.046,0,0,1-4.666,1.939,27.144,27.144,0,0,0,7.612,7.948,31.468,31.468,0,0,1-6.888,2.986,36.057,36.057,0,0,0,10.52,9.46C79.55,82.047,74.419,83.7,69.262,83.986v.038c-.232,0-.478-.012-.71-.012q-.449.013-.9.013c-5.549,0-11.168-1.6-17.484-4.847a51.089,51.089,0,0,0,9.319-9.836,34.7,34.7,0,0,1-6.437-2.817,39.119,39.119,0,0,0,6.708-8.065,30.955,30.955,0,0,1-4.278-1.809c2.456-2.055,5.144-4.343,6.721-6.76a35.808,35.808,0,0,1-3.606-1.1c4.161-3.11,6.165-7.079,7.961-11.031m0-1.869-.094,0a1.869,1.869,0,0,0-1.608,1.093c-1.739,3.825-3.611,7.492-7.379,10.307a1.869,1.869,0,0,0,.33,3.191A10.023,10.023,0,0,0,59,50.931a52.247,52.247,0,0,1-4.71,4.287,1.868,1.868,0,0,0,.346,3.095q1.114.573,2.266,1.058a35.97,35.97,0,0,1-5.1,5.772,1.868,1.868,0,0,0,.348,3.014,39.031,39.031,0,0,0,4.333,2.084,52.863,52.863,0,0,1-7.5,7.5,1.868,1.868,0,0,0,.343,3.095c6.7,3.449,12.529,5.055,18.339,5.055q.461,0,.921-.014l.278.006c.137,0,.274.007.406.007a1.862,1.862,0,0,0,.493-.066c5.186-.349,10.379-1.975,16.3-5.1a1.868,1.868,0,0,0,.126-3.232,36.8,36.8,0,0,1-8.412-6.97,35.041,35.041,0,0,0,4.715-2.278,1.868,1.868,0,0,0,.124-3.159,24.463,24.463,0,0,1-5.741-5.475c.871-.357,1.742-.764,2.606-1.217A1.868,1.868,0,0,0,79.6,55.16a27.163,27.163,0,0,1-5.056-3.993,11.836,11.836,0,0,0,1.6-.594,1.868,1.868,0,0,0,.123-3.316c-3.548-2.006-5.022-4.763-6.728-7.956-.43-.8-.873-1.633-1.364-2.477a1.868,1.868,0,0,0-1.615-.931Z"/><path class="cls-1" d="M65.049,86.209c1.435.1,2.921.142,4.42.142l.789,9.034L64.7,95.307l.349-9.1m0-1.869a1.87,1.87,0,0,0-1.867,1.8l-.349,9.1a1.869,1.869,0,0,0,1.841,1.94l5.558.077h.026a1.868,1.868,0,0,0,1.861-2.031l-.788-9.034a1.87,1.87,0,0,0-1.862-1.706c-1.6,0-3-.045-4.286-.137-.044,0-.089,0-.134,0Z"/><path class="cls-2" d="M119.011,39.545c-1.6,3.515-3.379,7.045-7.081,9.811a31.771,31.771,0,0,0,3.207.977,30.745,30.745,0,0,1-5.977,6.012,27.448,27.448,0,0,0,3.805,1.61A34.8,34.8,0,0,1,107,65.128a30.883,30.883,0,0,0,5.724,2.506,45.419,45.419,0,0,1-8.288,8.748c5.92,3.046,11.151,4.46,16.347,4.3.206,0,.425.011.632.011v-.034a34.207,34.207,0,0,0,14.162-4.368,32.082,32.082,0,0,1-9.357-8.415,28.071,28.071,0,0,0,6.127-2.655,24.147,24.147,0,0,1-6.771-7.07,24.057,24.057,0,0,0,4.15-1.724,21.647,21.647,0,0,1-6.518-5.909,25.044,25.044,0,0,0,3.621-1.08c-4.426-2.5-5.621-6.111-7.817-9.892Z"/><path class="cls-2" d="M117.666,82.635l-.31,8.093,4.943.069-.7-8.035c-1.334,0-2.656-.035-3.932-.127Z"/><path class="cls-2" d="M119.011,39.545c-1.6,3.515-3.379,7.045-7.081,9.811a31.771,31.771,0,0,0,3.207.977,30.745,30.745,0,0,1-5.977,6.012,27.448,27.448,0,0,0,3.805,1.61A34.8,34.8,0,0,1,107,65.128a30.883,30.883,0,0,0,5.724,2.506,45.419,45.419,0,0,1-8.288,8.748c5.92,3.046,11.151,4.46,16.347,4.3.206,0,.425.011.632.011v-.034a34.207,34.207,0,0,0,14.162-4.368,32.082,32.082,0,0,1-9.357-8.415,28.071,28.071,0,0,0,6.127-2.655,24.147,24.147,0,0,1-6.771-7.07,24.057,24.057,0,0,0,4.15-1.724,21.647,21.647,0,0,1-6.518-5.909,25.044,25.044,0,0,0,3.621-1.08c-4.426-2.5-5.621-6.111-7.817-9.892Z"/><path class="cls-2" d="M117.666,82.635l-.31,8.093,4.943.069-.7-8.035c-1.334,0-2.656-.035-3.932-.127Z"/><path class="cls-1" d="M119.011,39.545c2.2,3.781,3.391,7.39,7.817,9.892a25.044,25.044,0,0,1-3.621,1.08,21.659,21.659,0,0,0,6.518,5.909,24.057,24.057,0,0,1-4.15,1.724,24.147,24.147,0,0,0,6.771,7.07,28.071,28.071,0,0,1-6.127,2.655,32.082,32.082,0,0,0,9.357,8.415,34.207,34.207,0,0,1-14.162,4.368v.034c-.207,0-.425-.011-.632-.011-.266.008-.531.012-.8.012-4.935,0-9.932-1.421-15.55-4.311a45.419,45.419,0,0,0,8.288-8.748A30.883,30.883,0,0,1,107,65.128a34.8,34.8,0,0,0,5.966-7.173,27.448,27.448,0,0,1-3.805-1.61,30.745,30.745,0,0,0,5.977-6.012,31.771,31.771,0,0,1-3.207-.977c3.7-2.766,5.483-6.3,7.081-9.811m0-1.662-.082,0a1.663,1.663,0,0,0-1.431.972c-1.546,3.4-3.212,6.664-6.563,9.168a1.662,1.662,0,0,0,.294,2.838,8.8,8.8,0,0,0,1.054.4,46.548,46.548,0,0,1-4.19,3.813,1.662,1.662,0,0,0,.308,2.753q.992.508,2.016.941A32.026,32.026,0,0,1,105.88,63.9a1.663,1.663,0,0,0,.31,2.682,34.5,34.5,0,0,0,3.854,1.853,47.079,47.079,0,0,1-6.675,6.674,1.661,1.661,0,0,0,.306,2.752c5.96,3.068,11.143,4.5,16.31,4.5q.411,0,.82-.012c.081,0,.165,0,.248,0,.121,0,.243.006.361.006a1.658,1.658,0,0,0,.437-.058,35.871,35.871,0,0,0,14.5-4.536,1.662,1.662,0,0,0,.112-2.876,32.683,32.683,0,0,1-7.481-6.2,31.265,31.265,0,0,0,4.194-2.025,1.663,1.663,0,0,0,.11-2.811,21.739,21.739,0,0,1-5.106-4.869c.774-.318,1.549-.679,2.317-1.083a1.662,1.662,0,0,0,.113-2.878,24.185,24.185,0,0,1-4.5-3.551,10.682,10.682,0,0,0,1.424-.528,1.662,1.662,0,0,0,.109-2.95c-3.156-1.784-4.467-4.236-5.985-7.076-.382-.714-.776-1.452-1.213-2.2a1.663,1.663,0,0,0-1.437-.827Z"/><path class="cls-1" d="M117.666,82.635c1.276.092,2.6.127,3.932.127l.7,8.035-4.943-.069.31-8.093m0-1.662a1.662,1.662,0,0,0-1.66,1.6l-.311,8.093a1.662,1.662,0,0,0,1.638,1.725l4.943.069h.023a1.664,1.664,0,0,0,1.656-1.807l-.7-8.035A1.661,1.661,0,0,0,121.6,81.1c-1.424,0-2.671-.04-3.812-.123-.04,0-.08,0-.12,0Z"/><path class="cls-2" d="M32.621,43.509c-1.8,3.952-3.8,7.921-7.961,11.031a35.869,35.869,0,0,0,3.605,1.1c-1.576,2.417-4.265,4.705-6.72,6.76a30.782,30.782,0,0,0,4.278,1.809,39.151,39.151,0,0,1-6.708,8.065,34.769,34.769,0,0,0,6.436,2.818,51.076,51.076,0,0,1-9.318,9.835c6.656,3.425,12.536,5.015,18.378,4.834.233,0,.478.013.711.013v-.039c5.157-.285,10.288-1.939,15.923-4.911a36.065,36.065,0,0,1-10.521-9.461,31.475,31.475,0,0,0,6.889-2.986A27.131,27.131,0,0,1,40,64.427a26.99,26.99,0,0,0,4.665-1.939,24.344,24.344,0,0,1-7.328-6.643,28.046,28.046,0,0,0,4.071-1.215c-4.975-2.812-6.32-6.87-8.788-11.121Z"/><path class="cls-2" d="M31.109,91.956l-.349,9.1,5.557.078L35.529,92.1c-1.5,0-2.986-.039-4.42-.142Z"/><path class="cls-2" d="M32.621,43.509c-1.8,3.952-3.8,7.921-7.961,11.031a35.869,35.869,0,0,0,3.605,1.1c-1.576,2.417-4.265,4.705-6.72,6.76a30.782,30.782,0,0,0,4.278,1.809,39.151,39.151,0,0,1-6.708,8.065,34.769,34.769,0,0,0,6.436,2.818,51.076,51.076,0,0,1-9.318,9.835c6.656,3.425,12.536,5.015,18.378,4.834.233,0,.478.013.711.013v-.039c5.157-.285,10.288-1.939,15.923-4.911a36.065,36.065,0,0,1-10.521-9.461,31.475,31.475,0,0,0,6.889-2.986A27.131,27.131,0,0,1,40,64.427a26.99,26.99,0,0,0,4.665-1.939,24.344,24.344,0,0,1-7.328-6.643,28.046,28.046,0,0,0,4.071-1.215c-4.975-2.812-6.32-6.87-8.788-11.121Z"/><path class="cls-2" d="M31.109,91.956l-.349,9.1,5.557.078L35.529,92.1c-1.5,0-2.986-.039-4.42-.142Z"/><path class="cls-1" d="M32.621,43.509c2.468,4.251,3.812,8.309,8.788,11.121a28.046,28.046,0,0,1-4.071,1.215,24.344,24.344,0,0,0,7.328,6.643A26.99,26.99,0,0,1,40,64.427a27.144,27.144,0,0,0,7.612,7.948,31.475,31.475,0,0,1-6.889,2.986,36.049,36.049,0,0,0,10.521,9.46c-5.635,2.973-10.766,4.627-15.923,4.912v.039c-.233,0-.478-.013-.711-.013q-.447.014-.895.013c-5.549,0-11.167-1.6-17.483-4.847a51.076,51.076,0,0,0,9.318-9.835,34.769,34.769,0,0,1-6.436-2.818,39.151,39.151,0,0,0,6.708-8.065A30.782,30.782,0,0,1,21.545,62.4c2.455-2.055,5.144-4.343,6.72-6.76a35.869,35.869,0,0,1-3.605-1.1c4.161-3.11,6.164-7.079,7.961-11.031m0-1.868c-.031,0-.062,0-.093,0a1.868,1.868,0,0,0-1.608,1.093c-1.739,3.825-3.612,7.493-7.379,10.307a1.869,1.869,0,0,0,.33,3.191,9.957,9.957,0,0,0,1.185.444,52.382,52.382,0,0,1-4.71,4.287,1.869,1.869,0,0,0,.345,3.095c.743.382,1.5.735,2.267,1.059a36.1,36.1,0,0,1-5.1,5.771,1.868,1.868,0,0,0,.348,3.014,39.134,39.134,0,0,0,4.333,2.085,52.912,52.912,0,0,1-7.5,7.5,1.868,1.868,0,0,0,.343,3.095c6.7,3.449,12.529,5.055,18.338,5.055.308,0,.614-.005.922-.014l.278.006c.137,0,.273.007.406.007a1.9,1.9,0,0,0,.492-.065c5.187-.35,10.379-1.976,16.3-5.1a1.868,1.868,0,0,0,.125-3.232,36.81,36.81,0,0,1-8.411-6.97,35.041,35.041,0,0,0,4.715-2.278,1.868,1.868,0,0,0,.124-3.159,24.479,24.479,0,0,1-5.741-5.474c.871-.358,1.742-.765,2.606-1.218a1.869,1.869,0,0,0,.126-3.236A27.2,27.2,0,0,1,40.6,56.914a11.987,11.987,0,0,0,1.6-.593A1.868,1.868,0,0,0,42.329,53C38.781,51,37.307,48.241,35.6,45.048c-.429-.8-.873-1.633-1.363-2.477a1.869,1.869,0,0,0-1.616-.93Z"/><path class="cls-1" d="M31.109,91.956c1.434.1,2.921.142,4.42.142l.788,9.034-5.557-.078.349-9.1m0-1.869a1.868,1.868,0,0,0-1.867,1.8l-.349,9.1a1.867,1.867,0,0,0,1.841,1.94l5.557.077h.026a1.868,1.868,0,0,0,1.862-2.031l-.789-9.034a1.868,1.868,0,0,0-1.861-1.706c-1.6,0-3-.044-4.286-.137-.045,0-.09,0-.134,0Z"/><path class="cls-3" d="M63.59,95.606c7.95-7.44,21.67-12.31,35.19-12.31,17.58,0,29.48,8.23,34.63,19.62"/><path class="cls-3" d="M77.76,101.926a38.746,38.746,0,0,0-14.17-6.32,53.089,53.089,0,0,0-12.15-1.35c-17.58,0-33.48,7.68-38.63,21.06"/><path class="cls-2" d="M91.771,48.893c-1.8,3.952-3.8,7.921-7.961,11.031a36.157,36.157,0,0,0,3.606,1.1c-1.577,2.416-4.265,4.7-6.721,6.759a30.884,30.884,0,0,0,4.278,1.809,39.062,39.062,0,0,1-6.707,8.065A34.674,34.674,0,0,0,84.7,80.474a51.107,51.107,0,0,1-9.318,9.835c6.656,3.425,12.536,5.015,18.378,4.834.232,0,.478.013.711.013v-.039c5.156-.284,10.287-1.939,15.922-4.911a36.072,36.072,0,0,1-10.52-9.461,31.518,31.518,0,0,0,6.889-2.985,27.15,27.15,0,0,1-7.613-7.949,26.967,26.967,0,0,0,4.666-1.939,24.307,24.307,0,0,1-7.328-6.643,28.2,28.2,0,0,0,4.071-1.214c-4.976-2.813-6.32-6.871-8.789-11.122Z"/><path class="cls-2" d="M90.259,97.34l-.349,9.1,5.558.077-.789-9.034c-1.5,0-2.985-.039-4.42-.142Z"/><path class="cls-2" d="M91.771,48.893c-1.8,3.952-3.8,7.921-7.961,11.031a36.157,36.157,0,0,0,3.606,1.1c-1.577,2.416-4.265,4.7-6.721,6.759a30.884,30.884,0,0,0,4.278,1.809,39.062,39.062,0,0,1-6.707,8.065A34.674,34.674,0,0,0,84.7,80.474a51.107,51.107,0,0,1-9.318,9.835c6.656,3.425,12.536,5.015,18.378,4.834.232,0,.478.013.711.013v-.039c5.156-.284,10.287-1.939,15.922-4.911a36.072,36.072,0,0,1-10.52-9.461,31.518,31.518,0,0,0,6.889-2.985,27.15,27.15,0,0,1-7.613-7.949,26.967,26.967,0,0,0,4.666-1.939,24.307,24.307,0,0,1-7.328-6.643,28.2,28.2,0,0,0,4.071-1.214c-4.976-2.813-6.32-6.871-8.789-11.122Z"/><path class="cls-2" d="M90.259,97.34l-.349,9.1,5.558.077-.789-9.034c-1.5,0-2.985-.039-4.42-.142Z"/><path class="cls-1" d="M91.771,48.893c2.469,4.251,3.813,8.309,8.789,11.122a28.2,28.2,0,0,1-4.071,1.214,24.307,24.307,0,0,0,7.328,6.643,26.967,26.967,0,0,1-4.666,1.939,27.15,27.15,0,0,0,7.613,7.949,31.518,31.518,0,0,1-6.889,2.985,36.072,36.072,0,0,0,10.52,9.461c-5.635,2.972-10.766,4.627-15.922,4.911v.039c-.233,0-.478-.013-.711-.013-.3.009-.6.014-.895.014-5.549,0-11.168-1.6-17.483-4.848A51.138,51.138,0,0,0,84.7,80.474a34.674,34.674,0,0,1-6.436-2.818,39.062,39.062,0,0,0,6.707-8.065,30.884,30.884,0,0,1-4.278-1.809c2.456-2.055,5.144-4.343,6.721-6.759a36.157,36.157,0,0,1-3.606-1.1c4.162-3.11,6.165-7.079,7.961-11.031m0-1.868c-.031,0-.062,0-.093,0A1.871,1.871,0,0,0,90.07,48.12c-1.738,3.826-3.611,7.493-7.378,10.307a1.869,1.869,0,0,0,.329,3.191,10.09,10.09,0,0,0,1.185.444,51.964,51.964,0,0,1-4.71,4.287,1.869,1.869,0,0,0,.346,3.095q1.114.573,2.267,1.059a35.973,35.973,0,0,1-5.1,5.771,1.868,1.868,0,0,0,.349,3.015,38.933,38.933,0,0,0,4.332,2.084,52.86,52.86,0,0,1-7.5,7.5,1.869,1.869,0,0,0,.344,3.1c6.7,3.448,12.529,5.054,18.338,5.054.308,0,.614,0,.921-.014l.279.006c.136,0,.273.007.406.007a1.9,1.9,0,0,0,.492-.065c5.186-.35,10.379-1.976,16.3-5.1a1.868,1.868,0,0,0,.126-3.232,36.791,36.791,0,0,1-8.412-6.97,34.989,34.989,0,0,0,4.716-2.278,1.868,1.868,0,0,0,.124-3.159,24.482,24.482,0,0,1-5.742-5.474c.872-.358,1.743-.765,2.606-1.218a1.868,1.868,0,0,0,.127-3.236A27.163,27.163,0,0,1,99.756,62.3a11.987,11.987,0,0,0,1.6-.593,1.869,1.869,0,0,0,.122-3.317c-3.547-2-5.021-4.763-6.728-7.956-.429-.8-.873-1.632-1.364-2.477a1.867,1.867,0,0,0-1.615-.93Z"/><path class="cls-1" d="M90.259,97.34c1.435.1,2.921.142,4.42.142l.789,9.034-5.558-.077.349-9.1m0-1.869a1.87,1.87,0,0,0-1.867,1.8l-.349,9.1a1.869,1.869,0,0,0,1.841,1.94l5.558.077h.026a1.868,1.868,0,0,0,1.861-2.031l-.788-9.034a1.869,1.869,0,0,0-1.862-1.707c-1.6,0-3-.044-4.285-.137-.045,0-.09,0-.135,0Z"/><path class="cls-3" d="M57.231,125.58c.924-13.615,14.05-25.32,31.63-25.32s38.48,9.46,43.63,25.32"/></g></g></svg>