<svg xmlns="http://www.w3.org/2000/svg" viewBox="0 0 148.386 171.342"><defs><style>.cls-1{fill:#cfff7d;}.cls-2{fill:#97d758;}</style></defs><title>Plains-Forest</title><g id="Layer_2" data-name="Layer 2"><g id="Layer_1-2" data-name="Layer 1"><polygon class="cls-1" points="1.417 127.688 1.417 43.654 74.193 1.637 146.969 43.654 146.969 127.688 74.193 169.705 1.417 127.688"/><path class="cls-2" d="M74.193,3.273l71.359,41.2v82.4l-71.359,41.2L2.835,126.87v-82.4l71.358-41.2m0-3.273L0,42.836v85.67l74.193,42.836,74.193-42.836V42.836L74.193,0Z"/><path class="cls-2" d="M110.816,40.479c-2.529,5.563-5.348,11.149-11.206,15.526a50.538,50.538,0,0,0,5.075,1.547c-2.219,3.4-6,6.621-9.459,9.514a43.444,43.444,0,0,0,6.021,2.546,55.05,55.05,0,0,1-9.441,11.352,48.782,48.782,0,0,0,9.059,3.965A71.864,71.864,0,0,1,87.749,98.773c9.369,4.821,17.646,7.058,25.868,6.8.328,0,.673.018,1,.018v-.055c7.258-.4,14.48-2.728,22.411-6.912-7.058-4.457-11.442-8.678-14.807-13.317a44.285,44.285,0,0,0,9.7-4.2A38.216,38.216,0,0,1,121.2,69.922a38.066,38.066,0,0,0,6.567-2.729c-4.22-2.656-8.022-5.876-10.314-9.35a39.783,39.783,0,0,0,5.73-1.71c-7-3.959-8.9-9.671-12.37-15.654Z"/><path class="cls-2" d="M108.687,108.669l-.491,12.807,7.822.109-1.109-12.716c-2.11,0-4.2-.054-6.222-.2Z"/><path class="cls-2" d="M36.592,40.479c-2.528,5.563-5.348,11.149-11.2,15.526a50.459,50.459,0,0,0,5.075,1.547c-2.219,3.4-6,6.621-9.46,9.514a43.506,43.506,0,0,0,6.022,2.546,55.05,55.05,0,0,1-9.441,11.352,48.724,48.724,0,0,0,9.059,3.965A71.864,71.864,0,0,1,13.526,98.773c9.368,4.821,17.645,7.058,25.868,6.8.327,0,.673.018,1,.018v-.055c7.259-.4,14.481-2.728,22.412-6.912C55.748,94.171,51.364,89.95,48,85.311a44.285,44.285,0,0,0,9.7-4.2A38.225,38.225,0,0,1,46.98,69.922a38.066,38.066,0,0,0,6.567-2.729c-4.221-2.656-8.023-5.876-10.315-9.35a39.758,39.758,0,0,0,5.731-1.71c-7-3.959-8.9-9.671-12.371-15.654Z"/><path class="cls-2" d="M34.464,108.669l-.491,12.807,7.822.109-1.11-12.716c-2.11,0-4.2-.054-6.221-.2Z"/><path class="cls-2" d="M73.7,49.757C71.176,55.32,68.356,60.906,62.5,65.283a50.209,50.209,0,0,0,5.076,1.546c-2.22,3.4-6,6.622-9.46,9.515a43.566,43.566,0,0,0,6.021,2.546,55.018,55.018,0,0,1-9.441,11.352,48.915,48.915,0,0,0,9.059,3.965,71.886,71.886,0,0,1-13.115,13.844c9.368,4.821,17.645,7.058,25.868,6.8.327,0,.673.018,1,.018v-.055c7.258-.4,14.48-2.729,22.412-6.913-7.058-4.456-11.443-8.677-14.808-13.316a44.333,44.333,0,0,0,9.7-4.2A38.229,38.229,0,0,1,84.091,79.2a38.145,38.145,0,0,0,6.567-2.729c-4.22-2.656-8.022-5.876-10.314-9.35a39.708,39.708,0,0,0,5.73-1.71c-7-3.959-8.895-9.671-12.37-15.654Z"/><path class="cls-2" d="M71.576,117.947l-.491,12.807,7.822.109L77.8,118.147c-2.11,0-4.2-.054-6.221-.2Z"/><path class="cls-2" d="M73.7,49.757C71.176,55.32,68.356,60.906,62.5,65.283a50.209,50.209,0,0,0,5.076,1.546c-2.22,3.4-6,6.622-9.46,9.515a43.566,43.566,0,0,0,6.021,2.546,55.018,55.018,0,0,1-9.441,11.352,48.915,48.915,0,0,0,9.059,3.965,71.886,71.886,0,0,1-13.115,13.844c9.368,4.821,17.645,7.058,25.868,6.8.327,0,.673.018,1,.018v-.055c7.258-.4,14.48-2.729,22.412-6.913-7.058-4.456-11.443-8.677-14.808-13.316a44.333,44.333,0,0,0,9.7-4.2A38.229,38.229,0,0,1,84.091,79.2a38.145,38.145,0,0,0,6.567-2.729c-4.22-2.656-8.022-5.876-10.314-9.35a39.708,39.708,0,0,0,5.73-1.71c-7-3.959-8.895-9.671-12.37-15.654Z"/><path class="cls-2" d="M71.576,117.947l-.491,12.807,7.822.109L77.8,118.147c-2.11,0-4.2-.054-6.221-.2Z"/><path class="cls-1" d="M73.7,49.757c3.475,5.983,5.367,11.7,12.37,15.654a39.708,39.708,0,0,1-5.73,1.71c2.292,3.474,6.094,6.694,10.314,9.35A38.145,38.145,0,0,1,84.091,79.2,38.229,38.229,0,0,0,94.806,90.387a44.333,44.333,0,0,1-9.7,4.2c3.365,4.639,7.75,8.86,14.808,13.316-7.932,4.184-15.154,6.513-22.412,6.913v.055c-.327,0-.673-.018-1-.018-.42.013-.839.019-1.26.019-7.81,0-15.719-2.249-24.608-6.823A71.886,71.886,0,0,0,63.753,94.207a48.849,48.849,0,0,1-9.059-3.965A55.05,55.05,0,0,0,64.135,78.89a43.566,43.566,0,0,1-6.021-2.546c3.456-2.893,7.24-6.113,9.46-9.515A50.209,50.209,0,0,1,62.5,65.283c5.858-4.377,8.678-9.963,11.206-15.526m0-2.63q-.066,0-.132,0a2.629,2.629,0,0,0-2.263,1.539c-2.448,5.384-5.084,10.545-10.386,14.507a2.63,2.63,0,0,0,.464,4.491,13.859,13.859,0,0,0,1.668.625,73.346,73.346,0,0,1-6.63,6.035,2.629,2.629,0,0,0,.487,4.356c1.046.537,2.112,1.035,3.19,1.49A50.623,50.623,0,0,1,52.925,88.3a2.63,2.63,0,0,0,.49,4.243,54.719,54.719,0,0,0,6.1,2.934,74.463,74.463,0,0,1-10.562,10.56,2.63,2.63,0,0,0,.483,4.356c9.433,4.854,17.635,7.115,25.812,7.115.433,0,.864-.006,1.3-.019.128,0,.26,0,.392.008.192.005.384.01.571.01a2.64,2.64,0,0,0,.693-.092c7.3-.493,14.609-2.781,22.946-7.179a2.63,2.63,0,0,0,.177-4.55,51.8,51.8,0,0,1-11.84-9.811,49.181,49.181,0,0,0,6.637-3.2,2.63,2.63,0,0,0,.175-4.447,34.408,34.408,0,0,1-8.081-7.706c1.226-.5,2.452-1.075,3.668-1.714a2.63,2.63,0,0,0,.178-4.554,38.3,38.3,0,0,1-7.117-5.62A16.767,16.767,0,0,0,87.2,67.79a2.63,2.63,0,0,0,.173-4.669c-4.993-2.822-7.068-6.7-9.47-11.2-.6-1.13-1.229-2.3-1.92-3.488a2.629,2.629,0,0,0-2.273-1.309Z"/><path class="cls-1" d="M71.576,117.947c2.019.146,4.111.2,6.221.2l1.11,12.716-7.822-.109.491-12.807m0-2.63a2.63,2.63,0,0,0-2.628,2.529l-.492,12.807a2.63,2.63,0,0,0,2.592,2.73l7.822.11h.037a2.631,2.631,0,0,0,2.62-2.859l-1.11-12.715a2.63,2.63,0,0,0-2.62-2.4c-2.254,0-4.227-.063-6.032-.193-.063,0-.127-.007-.189-.007Z"/></g></g></svg>