<svg xmlns="http://www.w3.org/2000/svg" viewBox="0 0 148.386 171.342"><defs><style>.cls-1,.cls-3{fill:#00d28f;}.cls-2{fill:#008f59;}.cls-3{stroke:#008f59;stroke-linecap:round;stroke-linejoin:round;stroke-width:2.835px;}</style></defs><title>Grass-Hill-Forest</title><g id="Layer_2" data-name="Layer 2"><g id="Layer_1-2" data-name="Layer 1"><polygon class="cls-1" points="1.417 127.688 1.417 43.654 74.193 1.636 146.969 43.654 146.969 127.688 74.193 169.705 1.417 127.688"/><path class="cls-2" d="M74.193,3.273l71.359,41.2v82.4l-71.359,41.2L2.835,126.87v-82.4l71.358-41.2m0-3.273L0,42.835v85.671l74.193,42.836,74.193-42.836V42.835L74.193,0Z"/><path class="cls-2" d="M67.658,85.442c-5.735,0-11.5-1.59-18.133-5a1.417,1.417,0,0,1-.261-2.347,52.435,52.435,0,0,0,7.944-8.046,37.942,37.942,0,0,1-4.842-2.282,1.417,1.417,0,0,1-.264-2.287,36.621,36.621,0,0,0,5.49-6.306c-.932-.375-1.853-.8-2.755-1.258a1.419,1.419,0,0,1-.262-2.348A46.6,46.6,0,0,0,59.809,50.7,12.6,12.6,0,0,1,58,50.078a1.419,1.419,0,0,1-.25-2.421c3.855-2.88,5.756-6.6,7.52-10.48a1.418,1.418,0,0,1,1.22-.831h.07a1.415,1.415,0,0,1,1.225.706c.484.831.924,1.655,1.357,2.464,1.74,3.255,3.242,6.065,6.9,8.134a1.418,1.418,0,0,1-.094,2.517,14.1,14.1,0,0,1-2.238.768,26.387,26.387,0,0,0,5.647,4.608,1.417,1.417,0,0,1-.1,2.454,30.085,30.085,0,0,1-3.109,1.416,25.023,25.023,0,0,0,6.2,6.048,1.417,1.417,0,0,1-.094,2.4,34.2,34.2,0,0,1-5.247,2.474,36.482,36.482,0,0,0,8.928,7.546,1.418,1.418,0,0,1-.1,2.452C79.957,83.434,74.8,85.045,69.66,85.382a1.345,1.345,0,0,1-.4.059c-.128,0-.711-.013-.711-.013C68.283,85.438,67.97,85.442,67.658,85.442Z"/><path class="cls-1" d="M66.561,37.762c2.469,4.251,3.813,8.309,8.789,11.121A28.12,28.12,0,0,1,71.279,50.1a24.32,24.32,0,0,0,7.328,6.643,26.967,26.967,0,0,1-4.666,1.939,27.144,27.144,0,0,0,7.612,7.948,31.468,31.468,0,0,1-6.888,2.986,36.057,36.057,0,0,0,10.52,9.46C79.55,82.047,74.419,83.7,69.262,83.986v.038c-.232,0-.478-.013-.71-.013-.3.01-.6.014-.9.014-5.549,0-11.167-1.6-17.483-4.847a51.089,51.089,0,0,0,9.319-9.836,34.7,34.7,0,0,1-6.437-2.817,39.119,39.119,0,0,0,6.708-8.065,30.955,30.955,0,0,1-4.278-1.809c2.456-2.055,5.144-4.343,6.721-6.76a35.808,35.808,0,0,1-3.606-1.1c4.161-3.11,6.165-7.079,7.961-11.031m0-2.835c-.047,0-.094,0-.142,0a2.834,2.834,0,0,0-2.439,1.658c-1.75,3.848-3.489,7.252-7.078,9.933a2.835,2.835,0,0,0,.372,4.777c-1.2,1.16-2.513,2.261-3.609,3.178a2.834,2.834,0,0,0,.524,4.7q.6.311,1.216.6a34.524,34.524,0,0,1-4.258,4.661A2.836,2.836,0,0,0,51.676,69q1.617.9,3.234,1.621A54.1,54.1,0,0,1,48.355,77a2.835,2.835,0,0,0,.521,4.695c6.844,3.522,12.811,5.162,18.78,5.162q.466,0,.933-.014l.241.006c.146,0,.291.007.432.007a2.853,2.853,0,0,0,.645-.073c5.3-.372,10.587-2.032,16.6-5.2a2.835,2.835,0,0,0,.191-4.9A37.706,37.706,0,0,1,79.41,70.89a36.631,36.631,0,0,0,3.559-1.806,2.834,2.834,0,0,0,.188-4.793A23.359,23.359,0,0,1,78.412,60q.759-.35,1.512-.745a2.834,2.834,0,0,0,.192-4.909,28.914,28.914,0,0,1-3.777-2.8c.074-.032.147-.066.219-.1a2.834,2.834,0,0,0,.187-5.031c-3.3-1.868-4.649-4.384-6.353-7.57-.433-.81-.88-1.648-1.379-2.507a2.835,2.835,0,0,0-2.451-1.412Z"/><path class="cls-2" d="M64.681,96.724a1.414,1.414,0,0,1-1.4-1.471l.348-9.1a1.417,1.417,0,0,1,1.416-1.362c.034,0,.069,0,.1,0,1.286.092,2.7.138,4.318.138a1.418,1.418,0,0,1,1.412,1.294l.788,9.034A1.419,1.419,0,0,1,70.257,96.8Z"/><path class="cls-1" d="M65.049,86.209c1.435.1,2.921.142,4.42.142l.789,9.034L64.7,95.307l.349-9.1m0-2.835A2.834,2.834,0,0,0,62.217,86.1l-.349,9.1a2.834,2.834,0,0,0,2.793,2.943l5.557.077h.04a2.833,2.833,0,0,0,2.823-3.081L72.293,86.1a2.835,2.835,0,0,0-2.824-2.588c-1.578,0-2.957-.044-4.216-.135-.068,0-.136-.007-.2-.007Z"/><path class="cls-2" d="M119.985,82.11c-5.126,0-10.274-1.42-16.2-4.468a1.419,1.419,0,0,1-.26-2.348,46.73,46.73,0,0,0,6.914-6.966,33.982,33.982,0,0,1-4.131-1.962,1.417,1.417,0,0,1-.264-2.287,32.369,32.369,0,0,0,4.748-5.422c-.772-.316-1.535-.668-2.281-1.051a1.417,1.417,0,0,1-.262-2.347,43.185,43.185,0,0,0,4.474-4.124,10,10,0,0,1-1.393-.494,1.418,1.418,0,0,1-.25-2.421c3.4-2.538,5.08-5.83,6.64-9.261a1.415,1.415,0,0,1,1.22-.83h.07a1.417,1.417,0,0,1,1.226.7c.429.74.822,1.473,1.207,2.194,1.537,2.874,2.863,5.357,6.082,7.175a1.418,1.418,0,0,1-.093,2.517,11.56,11.56,0,0,1-1.772.625,23.7,23.7,0,0,0,4.819,3.882,1.417,1.417,0,0,1-.1,2.454,26.642,26.642,0,0,1-2.591,1.193,22.038,22.038,0,0,0,5.355,5.178,1.417,1.417,0,0,1-.094,2.4,30.646,30.646,0,0,1-4.483,2.134,32.578,32.578,0,0,0,7.761,6.511,1.417,1.417,0,0,1-.095,2.452,35.592,35.592,0,0,1-14.442,4.51,1.3,1.3,0,0,1-.382.055l-.631-.012C120.545,82.106,120.265,82.11,119.985,82.11Z"/><path class="cls-1" d="M119.011,39.545c2.2,3.781,3.391,7.39,7.817,9.892a25.044,25.044,0,0,1-3.621,1.08,21.659,21.659,0,0,0,6.518,5.909,24.057,24.057,0,0,1-4.15,1.724,24.16,24.16,0,0,0,6.771,7.07,28.071,28.071,0,0,1-6.127,2.655,32.082,32.082,0,0,0,9.357,8.415,34.207,34.207,0,0,1-14.162,4.368v.034c-.207,0-.425-.011-.632-.011q-.4.012-.8.012c-4.936,0-9.933-1.421-15.551-4.311a45.419,45.419,0,0,0,8.288-8.748A30.883,30.883,0,0,1,107,65.128a34.8,34.8,0,0,0,5.966-7.173,27.448,27.448,0,0,1-3.805-1.61,30.745,30.745,0,0,0,5.977-6.012,31.771,31.771,0,0,1-3.207-.977c3.7-2.766,5.483-6.3,7.081-9.811m0-2.835c-.047,0-.094,0-.142,0a2.834,2.834,0,0,0-2.439,1.658c-1.538,3.383-3.065,6.373-6.2,8.713a2.834,2.834,0,0,0,.011,4.551c-.977.922-2.022,1.8-2.9,2.536a2.834,2.834,0,0,0,.524,4.7c.244.126.491.248.739.367a30.3,30.3,0,0,1-3.513,3.8,2.835,2.835,0,0,0,.529,4.573q1.258.7,2.517,1.281a48.621,48.621,0,0,1-5.52,5.322,2.835,2.835,0,0,0,.521,4.7c6.133,3.156,11.487,4.626,16.848,4.626q.417,0,.832-.012c.067,0,.135,0,.2,0,.132,0,.264.007.393.007a2.818,2.818,0,0,0,.62-.068A37.067,37.067,0,0,0,136.9,78.8a2.834,2.834,0,0,0,.19-4.9,33.855,33.855,0,0,1-6.112-4.781q1.4-.639,2.784-1.436a2.835,2.835,0,0,0,.188-4.794,20.464,20.464,0,0,1-3.891-3.453q.494-.236.985-.493a2.835,2.835,0,0,0,.192-4.909,26.151,26.151,0,0,1-2.961-2.152,2.835,2.835,0,0,0-.051-4.906c-2.859-1.616-4.037-3.819-5.528-6.608-.386-.723-.786-1.47-1.232-2.24a2.836,2.836,0,0,0-2.451-1.411Z"/><path class="cls-2" d="M117.336,92.145a1.416,1.416,0,0,1-1.4-1.471l.31-8.093a1.417,1.417,0,0,1,1.416-1.362c.035,0,.068,0,.1,0,1.144.083,2.4.123,3.83.123a1.418,1.418,0,0,1,1.412,1.294l.7,8.036a1.418,1.418,0,0,1-1.412,1.54Z"/><path class="cls-1" d="M117.666,82.635c1.276.092,2.6.127,3.932.127l.7,8.035-4.943-.069.31-8.093m0-2.834a2.834,2.834,0,0,0-2.832,2.725l-.311,8.093a2.835,2.835,0,0,0,2.793,2.943l4.943.069h.04a2.834,2.834,0,0,0,2.824-3.081l-.7-8.035a2.835,2.835,0,0,0-2.824-2.588c-1.4,0-2.615-.039-3.728-.119-.068-.005-.136-.007-.2-.007Z"/><path class="cls-2" d="M33.717,91.189c-5.736,0-11.5-1.59-18.133-5a1.417,1.417,0,0,1-.26-2.346,52.481,52.481,0,0,0,7.944-8.046,38.009,38.009,0,0,1-4.843-2.282,1.417,1.417,0,0,1-.264-2.287,36.626,36.626,0,0,0,5.491-6.306c-.933-.375-1.854-.8-2.755-1.258a1.418,1.418,0,0,1-.263-2.348,46.7,46.7,0,0,0,5.235-4.864,12.559,12.559,0,0,1-1.808-.622,1.418,1.418,0,0,1-.25-2.421c3.854-2.88,5.756-6.6,7.519-10.48a1.417,1.417,0,0,1,1.22-.83h.07a1.417,1.417,0,0,1,1.226.7c.482.831.924,1.655,1.357,2.463,1.74,3.255,3.243,6.066,6.9,8.136a1.417,1.417,0,0,1-.094,2.516,14,14,0,0,1-2.238.768,26.379,26.379,0,0,0,5.646,4.608,1.418,1.418,0,0,1-.095,2.454,29.89,29.89,0,0,1-3.11,1.416,25.057,25.057,0,0,0,6.2,6.048,1.417,1.417,0,0,1-.093,2.4,34.292,34.292,0,0,1-5.247,2.474A36.495,36.495,0,0,0,52,83.623a1.417,1.417,0,0,1-.095,2.452c-5.889,3.106-11.043,4.717-16.187,5.054a1.343,1.343,0,0,1-.4.059c-.128,0-.711-.012-.711-.012C34.342,91.185,34.03,91.189,33.717,91.189Z"/><path class="cls-1" d="M32.621,43.509c2.468,4.251,3.812,8.309,8.788,11.121a28.046,28.046,0,0,1-4.071,1.215,24.344,24.344,0,0,0,7.328,6.643A26.99,26.99,0,0,1,40,64.427a27.144,27.144,0,0,0,7.612,7.948,31.475,31.475,0,0,1-6.889,2.986,36.065,36.065,0,0,0,10.521,9.461c-5.635,2.972-10.766,4.626-15.923,4.911v.038c-.233,0-.478-.012-.711-.012q-.447.014-.895.013c-5.549,0-11.167-1.6-17.483-4.847a51.076,51.076,0,0,0,9.318-9.835,34.769,34.769,0,0,1-6.436-2.818,39.125,39.125,0,0,0,6.708-8.065A30.782,30.782,0,0,1,21.545,62.4c2.455-2.055,5.144-4.343,6.72-6.759a36.14,36.14,0,0,1-3.605-1.1c4.161-3.11,6.164-7.079,7.961-11.031m0-2.835c-.047,0-.094,0-.141,0a2.835,2.835,0,0,0-2.44,1.658c-1.749,3.848-3.489,7.252-7.077,9.933a2.835,2.835,0,0,0,.372,4.777c-1.2,1.16-2.514,2.261-3.609,3.178a2.835,2.835,0,0,0,.524,4.7q.6.309,1.216.594a34.59,34.59,0,0,1-4.258,4.661,2.835,2.835,0,0,0,.528,4.574q1.617.9,3.233,1.621a54.084,54.084,0,0,1-6.554,6.38,2.835,2.835,0,0,0,.521,4.695c6.844,3.522,12.811,5.162,18.78,5.162.311,0,.622,0,.933-.014l.241.006c.145,0,.291.007.432.007a2.844,2.844,0,0,0,.644-.073c5.3-.372,10.587-2.032,16.6-5.2a2.835,2.835,0,0,0,.191-4.9,37.728,37.728,0,0,1-7.288-5.788,36.831,36.831,0,0,0,3.558-1.805,2.835,2.835,0,0,0,.189-4.794,23.391,23.391,0,0,1-4.746-4.3q.759-.349,1.513-.745a2.834,2.834,0,0,0,.192-4.909,28.846,28.846,0,0,1-3.777-2.8q.111-.048.219-.1a2.835,2.835,0,0,0,.186-5.032c-3.3-1.867-4.649-4.384-6.352-7.57-.433-.81-.881-1.648-1.38-2.507a2.834,2.834,0,0,0-2.451-1.412Z"/><path class="cls-2" d="M30.741,102.471a1.416,1.416,0,0,1-1.4-1.471l.349-9.1a1.415,1.415,0,0,1,1.416-1.362c.034,0,.068,0,.1,0,1.286.093,2.7.138,4.319.138a1.418,1.418,0,0,1,1.412,1.294l.788,9.035a1.418,1.418,0,0,1-1.412,1.54Z"/><path class="cls-1" d="M31.109,91.956c1.434.1,2.921.142,4.42.142l.788,9.034-5.557-.078.349-9.1m0-2.835a2.836,2.836,0,0,0-2.833,2.726l-.349,9.1a2.835,2.835,0,0,0,2.793,2.943l5.558.077h.039a2.834,2.834,0,0,0,2.824-3.082l-.788-9.034a2.835,2.835,0,0,0-2.824-2.588c-1.578,0-2.957-.044-4.217-.135-.067,0-.136-.007-.2-.007Z"/><path class="cls-3" d="M63.59,95.606c7.95-7.44,21.67-12.31,35.19-12.31,17.58,0,29.48,8.23,34.63,19.62"/><path class="cls-3" d="M77.76,101.926a38.746,38.746,0,0,0-14.17-6.32,53.089,53.089,0,0,0-12.15-1.35c-17.58,0-33.48,7.68-38.63,21.06"/><path class="cls-2" d="M92.864,96.574c-5.734,0-11.494-1.591-18.129-5a1.419,1.419,0,0,1-.261-2.349,52.309,52.309,0,0,0,7.945-8.045,37.942,37.942,0,0,1-4.842-2.282,1.417,1.417,0,0,1-.265-2.287A36.691,36.691,0,0,0,82.8,70.3c-.932-.375-1.853-.8-2.754-1.258a1.418,1.418,0,0,1-.262-2.348,46.575,46.575,0,0,0,5.233-4.863,12.586,12.586,0,0,1-1.807-.622,1.418,1.418,0,0,1-.251-2.421c3.853-2.879,5.756-6.6,7.521-10.483a1.42,1.42,0,0,1,1.22-.829h.07a1.416,1.416,0,0,1,1.225.7c.483.83.922,1.654,1.355,2.461,1.74,3.256,3.243,6.068,6.905,8.139a1.417,1.417,0,0,1-.093,2.516,14.029,14.029,0,0,1-2.238.769,26.5,26.5,0,0,0,5.646,4.608,1.417,1.417,0,0,1-.1,2.454,29.756,29.756,0,0,1-3.108,1.415,24.992,24.992,0,0,0,6.2,6.048,1.418,1.418,0,0,1-.094,2.4,34.3,34.3,0,0,1-5.248,2.473,36.537,36.537,0,0,0,8.928,7.547,1.418,1.418,0,0,1-.1,2.452c-5.889,3.106-11.041,4.717-16.183,5.052a1.327,1.327,0,0,1-.4.061c-.13,0-.711-.014-.711-.014C93.492,96.569,93.178,96.574,92.864,96.574Z"/><path class="cls-1" d="M91.771,48.893c2.469,4.251,3.813,8.309,8.789,11.122a28.2,28.2,0,0,1-4.071,1.214,24.323,24.323,0,0,0,7.328,6.644,27.04,27.04,0,0,1-4.666,1.938,27.15,27.15,0,0,0,7.613,7.949,31.518,31.518,0,0,1-6.889,2.985,36.072,36.072,0,0,0,10.52,9.461c-5.635,2.972-10.766,4.627-15.922,4.911v.039c-.233,0-.478-.013-.711-.013-.3.009-.6.014-.9.014-5.548,0-11.167-1.6-17.482-4.848A51.138,51.138,0,0,0,84.7,80.474a34.674,34.674,0,0,1-6.436-2.818,39.062,39.062,0,0,0,6.707-8.065,30.884,30.884,0,0,1-4.278-1.809c2.456-2.055,5.144-4.343,6.721-6.759a35.9,35.9,0,0,1-3.606-1.1c4.162-3.11,6.165-7.079,7.961-11.031m0-2.835c-.047,0-.094,0-.142,0a2.836,2.836,0,0,0-2.439,1.658c-1.749,3.848-3.489,7.252-7.078,9.933a2.835,2.835,0,0,0,.372,4.777c-1.2,1.16-2.513,2.261-3.609,3.178a2.835,2.835,0,0,0,.525,4.7q.6.309,1.216.594a34.6,34.6,0,0,1-4.259,4.661,2.836,2.836,0,0,0,.528,4.574q1.617.9,3.234,1.622a54.168,54.168,0,0,1-6.555,6.379,2.835,2.835,0,0,0,.522,4.7c6.843,3.521,12.811,5.161,18.779,5.161q.468,0,.933-.013c.08,0,.161,0,.242.005.145,0,.29.007.432.007a2.851,2.851,0,0,0,.644-.073c5.3-.371,10.587-2.032,16.6-5.2a2.835,2.835,0,0,0,.191-4.9,37.69,37.69,0,0,1-7.288-5.788,36.831,36.831,0,0,0,3.558-1.805,2.835,2.835,0,0,0,.188-4.794,23.385,23.385,0,0,1-4.745-4.3q.759-.349,1.513-.745a2.835,2.835,0,0,0,.192-4.908,28.953,28.953,0,0,1-3.778-2.8q.111-.048.219-.1a2.834,2.834,0,0,0,.187-5.032c-3.3-1.867-4.649-4.384-6.352-7.57-.433-.81-.881-1.648-1.38-2.507a2.835,2.835,0,0,0-2.451-1.412Z"/><path class="cls-2" d="M89.891,107.855a1.414,1.414,0,0,1-1.4-1.471l.348-9.1a1.417,1.417,0,0,1,1.416-1.362c.034,0,.069,0,.1,0,1.3.093,2.708.139,4.318.139a1.418,1.418,0,0,1,1.412,1.294l.789,9.034a1.417,1.417,0,0,1-1.412,1.54Z"/><path class="cls-1" d="M90.259,97.34c1.435.1,2.921.142,4.42.142l.789,9.034-5.558-.077.349-9.1m0-2.835a2.836,2.836,0,0,0-2.832,2.726l-.349,9.1a2.834,2.834,0,0,0,2.793,2.943l5.557.077h.04a2.835,2.835,0,0,0,2.824-3.081L97.5,97.236a2.835,2.835,0,0,0-2.824-2.589c-1.577,0-2.957-.044-4.216-.134-.068-.005-.136-.008-.2-.008Z"/><path class="cls-3" d="M57.231,125.58c.924-13.615,14.05-25.32,31.63-25.32s38.48,9.46,43.63,25.32"/></g></g></svg>