<svg xmlns="http://www.w3.org/2000/svg" viewBox="0 0 148.386 171.342"><defs><style>.cls-1{fill:#00d28f;}.cls-2{fill:#008f59;}</style></defs><title>Grass-Forest</title><g id="Layer_2" data-name="Layer 2"><g id="Layer_1-2" data-name="Layer 1"><polygon class="cls-1" points="1.417 127.688 1.417 43.654 74.193 1.636 146.969 43.654 146.969 127.688 74.193 169.705 1.417 127.688"/><path class="cls-2" d="M74.193,3.273l71.359,41.2v82.4l-71.359,41.2L2.835,126.87v-82.4l71.358-41.2m0-3.273L0,42.835v85.671l74.193,42.836,74.193-42.836V42.835L74.193,0Z"/><path class="cls-2" d="M112.361,107.013c-7.979,0-16.005-2.217-25.26-6.979a1.418,1.418,0,0,1-.261-2.348A73.173,73.173,0,0,0,98.585,85.65,52.211,52.211,0,0,1,91.117,82.2a1.417,1.417,0,0,1-.265-2.287,52.5,52.5,0,0,0,8.226-9.577,45.418,45.418,0,0,1-4.5-2.012,1.418,1.418,0,0,1-.261-2.348,59.076,59.076,0,0,0,8.018-7.608,21.958,21.958,0,0,1-3.323-1.079,1.418,1.418,0,0,1-.251-2.421c5.533-4.134,8.249-9.443,10.765-14.978a1.416,1.416,0,0,1,1.219-.829h.071a1.416,1.416,0,0,1,1.225.705c.68,1.171,1.3,2.329,1.9,3.451,2.491,4.661,4.642,8.685,9.943,11.68a1.418,1.418,0,0,1-.093,2.517,23.234,23.234,0,0,1-3.943,1.279,36.214,36.214,0,0,0,8.678,7.3,1.417,1.417,0,0,1-.1,2.454,41.08,41.08,0,0,1-5.014,2.228,35.906,35.906,0,0,0,9.3,9.264,1.418,1.418,0,0,1-.094,2.4,47.246,47.246,0,0,1-8.06,3.714,51.114,51.114,0,0,0,13.221,11.378,1.418,1.418,0,0,1-.095,2.453c-8.245,4.348-15.446,6.594-22.622,7.05a1.31,1.31,0,0,1-.452.079c-.175,0-.848-.017-1-.017C113.228,107.007,112.8,107.013,112.361,107.013Z"/><path class="cls-1" d="M110.816,40.479h0m0,0c3.474,5.983,5.366,11.7,12.37,15.654a39.657,39.657,0,0,1-5.73,1.71c2.292,3.474,6.094,6.694,10.314,9.35a38.066,38.066,0,0,1-6.567,2.729,38.2,38.2,0,0,0,10.715,11.187,44.338,44.338,0,0,1-9.7,4.2c3.365,4.638,7.749,8.859,14.807,13.316-7.931,4.184-15.153,6.512-22.411,6.912v.055c-.328,0-.673-.018-1-.018q-.63.02-1.259.019c-7.811,0-15.719-2.248-24.609-6.823a71.864,71.864,0,0,0,13.116-13.844,48.782,48.782,0,0,1-9.059-3.965,55.05,55.05,0,0,0,9.441-11.352,43.444,43.444,0,0,1-6.021-2.546c3.456-2.893,7.24-6.113,9.459-9.514a50.538,50.538,0,0,1-5.075-1.547c5.858-4.376,8.677-9.963,11.206-15.526m0-2.835c-.047,0-.094,0-.141,0a2.834,2.834,0,0,0-2.44,1.658c-2.436,5.359-5.058,10.5-10.322,14.429a2.834,2.834,0,0,0,.5,4.84,13,13,0,0,0,1.384.535,76.109,76.109,0,0,1-6.39,5.782,2.834,2.834,0,0,0,.524,4.7c.974.5,1.966.967,2.968,1.4a50.331,50.331,0,0,1-7,7.884,2.834,2.834,0,0,0,.528,4.573,55.391,55.391,0,0,0,5.866,2.841A74.755,74.755,0,0,1,85.931,96.6a2.836,2.836,0,0,0,.521,4.7c9.463,4.869,17.7,7.137,25.906,7.137q.649,0,1.3-.02c.126,0,.255,0,.384.008.194.006.388.01.577.01a2.85,2.85,0,0,0,.726-.093c7.323-.5,14.652-2.794,23.008-7.2a2.835,2.835,0,0,0,.191-4.9,51.933,51.933,0,0,1-11.6-9.554,49.517,49.517,0,0,0,6.394-3.112,2.834,2.834,0,0,0,.188-4.793,34.2,34.2,0,0,1-7.872-7.449q1.725-.721,3.439-1.62a2.834,2.834,0,0,0,.192-4.909,38.58,38.58,0,0,1-6.845-5.351,15.812,15.812,0,0,0,1.959-.746,2.834,2.834,0,0,0,.187-5.032c-4.942-2.793-7-6.65-9.391-11.116-.605-1.131-1.231-2.3-1.923-3.494a2.835,2.835,0,0,0-2.451-1.411Zm0,5.67h0Zm0,0h0Z"/><path class="cls-2" d="M108.177,122.892a1.414,1.414,0,0,1-1.4-1.471l.491-12.807a1.415,1.415,0,0,1,1.416-1.362c.034,0,.067,0,.1,0,1.835.132,3.836.2,6.12.2a1.417,1.417,0,0,1,1.412,1.294l1.11,12.716a1.417,1.417,0,0,1-1.412,1.54Z"/><path class="cls-1" d="M108.687,108.669c2.02.146,4.112.2,6.222.2l1.109,12.716-7.822-.109.491-12.807m0-2.834a2.834,2.834,0,0,0-2.832,2.726l-.491,12.806a2.834,2.834,0,0,0,2.793,2.943l7.822.109h.04a2.834,2.834,0,0,0,2.823-3.081l-1.109-12.716a2.834,2.834,0,0,0-2.824-2.588c-2.25,0-4.218-.063-6.018-.193-.068,0-.136-.007-.2-.007Z"/><path class="cls-2" d="M38.137,107.013c-7.978,0-16-2.217-25.26-6.979a1.418,1.418,0,0,1-.26-2.348A73.255,73.255,0,0,0,24.362,85.65,52.221,52.221,0,0,1,16.893,82.2a1.417,1.417,0,0,1-.265-2.287,52.486,52.486,0,0,0,8.227-9.577,45.418,45.418,0,0,1-4.5-2.012,1.418,1.418,0,0,1-.262-2.348,60.493,60.493,0,0,0,8.014-7.609,22.092,22.092,0,0,1-3.319-1.078,1.419,1.419,0,0,1-.25-2.421c5.533-4.133,8.248-9.443,10.764-14.978a1.419,1.419,0,0,1,1.22-.829h.07a1.418,1.418,0,0,1,1.226.705c.679,1.17,1.3,2.329,1.9,3.45C42.207,47.878,44.36,51.9,49.659,54.9a1.418,1.418,0,0,1-.092,2.516,23.2,23.2,0,0,1-3.943,1.279,36.191,36.191,0,0,0,8.678,7.3,1.417,1.417,0,0,1-.1,2.454,41.216,41.216,0,0,1-5.014,2.228A35.891,35.891,0,0,0,58.5,79.94a1.417,1.417,0,0,1-.093,2.4,47.186,47.186,0,0,1-8.062,3.714A51.122,51.122,0,0,0,63.563,97.429a1.418,1.418,0,0,1-.1,2.453c-8.245,4.348-15.445,6.594-22.621,7.05a1.309,1.309,0,0,1-.451.079c-.177,0-.85-.017-1-.017C39,107.007,38.572,107.013,38.137,107.013Z"/><path class="cls-1" d="M36.592,40.479c3.475,5.983,5.367,11.7,12.371,15.654a39.632,39.632,0,0,1-5.731,1.71c2.292,3.474,6.094,6.694,10.315,9.35a38.066,38.066,0,0,1-6.567,2.729A38.213,38.213,0,0,0,57.694,81.109a44.338,44.338,0,0,1-9.7,4.2c3.366,4.638,7.75,8.859,14.808,13.316-7.931,4.184-15.153,6.512-22.412,6.912v.055c-.327,0-.673-.018-1-.018-.42.013-.839.019-1.26.019-7.81,0-15.718-2.248-24.608-6.823A71.9,71.9,0,0,0,26.642,84.929a48.724,48.724,0,0,1-9.059-3.965,55.05,55.05,0,0,0,9.441-11.352A43.444,43.444,0,0,1,21,67.066c3.456-2.893,7.24-6.113,9.459-9.514a50.459,50.459,0,0,1-5.075-1.547c5.857-4.376,8.677-9.963,11.2-15.526m0-2.835c-.047,0-.094,0-.142,0a2.834,2.834,0,0,0-2.439,1.658c-2.436,5.359-5.059,10.5-10.322,14.429a2.834,2.834,0,0,0,.5,4.84,13,13,0,0,0,1.384.535,75.963,75.963,0,0,1-6.391,5.782,2.834,2.834,0,0,0,.525,4.7q1.461.751,2.968,1.4a50.387,50.387,0,0,1-7,7.884A2.835,2.835,0,0,0,16.2,83.44a55.311,55.311,0,0,0,5.867,2.841A74.755,74.755,0,0,1,11.708,96.6a2.834,2.834,0,0,0,.521,4.7c9.463,4.869,17.7,7.137,25.905,7.137.434,0,.866-.007,1.3-.02.126,0,.255,0,.384.008.194.006.388.01.576.01a2.852,2.852,0,0,0,.727-.093c7.322-.5,14.652-2.794,23.008-7.2a2.835,2.835,0,0,0,.191-4.9,51.91,51.91,0,0,1-11.6-9.554,49.644,49.644,0,0,0,6.394-3.112,2.834,2.834,0,0,0,.188-4.793,34.2,34.2,0,0,1-7.872-7.449q1.725-.721,3.438-1.62a2.835,2.835,0,0,0,.193-4.909,38.626,38.626,0,0,1-6.846-5.351,15.767,15.767,0,0,0,1.96-.746,2.835,2.835,0,0,0,.186-5.032c-4.942-2.793-7-6.65-9.391-11.116-.605-1.131-1.23-2.3-1.922-3.494a2.836,2.836,0,0,0-2.451-1.411Z"/><path class="cls-2" d="M33.953,122.892a1.416,1.416,0,0,1-1.4-1.471l.491-12.807a1.417,1.417,0,0,1,1.416-1.362q.051,0,.1,0c1.836.132,3.838.2,6.12.2a1.417,1.417,0,0,1,1.412,1.294l1.109,12.716A1.417,1.417,0,0,1,41.8,123Z"/><path class="cls-1" d="M34.464,108.669c2.019.146,4.111.2,6.221.2l1.11,12.716-7.822-.109.491-12.807m0-2.834a2.834,2.834,0,0,0-2.833,2.726l-.491,12.806a2.835,2.835,0,0,0,2.793,2.943l7.823.109H41.8a2.835,2.835,0,0,0,2.824-3.081l-1.11-12.716a2.833,2.833,0,0,0-2.824-2.588c-2.249,0-4.217-.063-6.017-.193-.068,0-.136-.007-.2-.007Z"/><path class="cls-2" d="M71.065,132.171a1.418,1.418,0,0,1-1.4-1.472l.491-12.807a1.417,1.417,0,0,1,1.417-1.362c.034,0,.067,0,.1,0,1.836.133,3.838.2,6.12.2a1.417,1.417,0,0,1,1.412,1.294l1.11,12.716a1.417,1.417,0,0,1-1.412,1.54Z"/><path class="cls-1" d="M71.576,117.947c2.019.146,4.111.2,6.221.2l1.11,12.716-7.822-.109.491-12.807m0-2.835a2.836,2.836,0,0,0-2.833,2.726l-.491,12.807a2.834,2.834,0,0,0,2.793,2.943l7.822.109h.04a2.836,2.836,0,0,0,2.824-3.082L80.621,117.9a2.834,2.834,0,0,0-2.824-2.588c-2.25,0-4.218-.063-6.017-.193-.068-.005-.137-.008-.2-.008Z"/><path class="cls-2" d="M75.244,116.291c-7.976,0-16-2.218-25.254-6.981a1.417,1.417,0,0,1-.261-2.347A73.165,73.165,0,0,0,61.473,94.928a52.143,52.143,0,0,1-7.468-3.448,1.417,1.417,0,0,1-.264-2.287,52.532,52.532,0,0,0,8.225-9.577,45.3,45.3,0,0,1-4.5-2.012,1.417,1.417,0,0,1-.262-2.347,59.638,59.638,0,0,0,8.016-7.61,21.777,21.777,0,0,1-3.321-1.08,1.417,1.417,0,0,1-.25-2.42C67.182,60.014,69.9,54.7,72.414,49.17a1.417,1.417,0,0,1,1.22-.829h.07a1.416,1.416,0,0,1,1.226.7c.68,1.171,1.3,2.33,1.9,3.45,2.492,4.661,4.644,8.686,9.944,11.682a1.417,1.417,0,0,1-.094,2.516,23.193,23.193,0,0,1-3.942,1.279,36.1,36.1,0,0,0,8.677,7.3,1.417,1.417,0,0,1-.095,2.454A40.785,40.785,0,0,1,86.3,79.953a35.948,35.948,0,0,0,9.306,9.266,1.417,1.417,0,0,1-.094,2.4,47.123,47.123,0,0,1-8.062,3.713,51.134,51.134,0,0,0,13.222,11.379,1.418,1.418,0,0,1-.1,2.452c-8.241,4.348-15.441,6.595-22.621,7.052a1.328,1.328,0,0,1-.451.079c-.176,0-.357-.005-.539-.01-.155,0-.31-.009-.462-.009C76.114,116.284,75.68,116.291,75.244,116.291Z"/><path class="cls-1" d="M73.7,49.757c3.475,5.983,5.367,11.7,12.37,15.654a39.708,39.708,0,0,1-5.73,1.71c2.292,3.474,6.094,6.694,10.314,9.35A38.145,38.145,0,0,1,84.091,79.2,38.229,38.229,0,0,0,94.806,90.387a44.333,44.333,0,0,1-9.7,4.2c3.365,4.639,7.75,8.86,14.808,13.317-7.932,4.183-15.154,6.512-22.412,6.912v.055c-.327,0-.673-.019-1-.019q-.63.021-1.261.02c-7.81,0-15.718-2.249-24.607-6.823A71.886,71.886,0,0,0,63.753,94.207a48.915,48.915,0,0,1-9.059-3.965A55.05,55.05,0,0,0,64.135,78.89a43.566,43.566,0,0,1-6.021-2.546c3.456-2.893,7.24-6.113,9.46-9.515A50.209,50.209,0,0,1,62.5,65.283c5.858-4.377,8.678-9.963,11.206-15.526m0-2.835c-.047,0-.095,0-.142,0a2.833,2.833,0,0,0-2.439,1.658C68.688,53.943,66.065,59.079,60.8,63.012a2.836,2.836,0,0,0,.5,4.841,13.014,13.014,0,0,0,1.385.535A76.136,76.136,0,0,1,56.3,74.17a2.834,2.834,0,0,0,.524,4.695q1.461.75,2.969,1.4a50.387,50.387,0,0,1-7,7.884,2.834,2.834,0,0,0,.528,4.573,55.186,55.186,0,0,0,5.866,2.84,74.593,74.593,0,0,1-10.362,10.318,2.835,2.835,0,0,0,.522,4.7c9.462,4.869,17.694,7.137,25.9,7.137q.651,0,1.3-.02c.126,0,.255.005.384.008.194,0,.388.01.577.01a2.8,2.8,0,0,0,.726-.094c7.323-.5,14.653-2.792,23.008-7.2a2.835,2.835,0,0,0,.191-4.9,51.933,51.933,0,0,1-11.6-9.554,49.648,49.648,0,0,0,6.394-3.112,2.835,2.835,0,0,0,.189-4.793A34.175,34.175,0,0,1,88.538,80.6c1.149-.481,2.3-1.022,3.438-1.62a2.834,2.834,0,0,0,.192-4.909,38.617,38.617,0,0,1-6.845-5.351,15.889,15.889,0,0,0,1.96-.746,2.835,2.835,0,0,0,.186-5.032c-4.942-2.793-7-6.65-9.391-11.116-.605-1.131-1.23-2.3-1.923-3.494a2.834,2.834,0,0,0-2.45-1.411Z"/></g></g></svg>