<svg xmlns="http://www.w3.org/2000/svg" viewBox="0 0 148.386 171.342"><defs><style>.cls-1,.cls-3{fill:#cfff7d;}.cls-2{fill:#97d758;}.cls-3{stroke:#97d758;stroke-linecap:round;stroke-linejoin:round;stroke-width:2.835px;}</style></defs><title>Plains-Hill-DeepForest</title><g id="Layer_2" data-name="Layer 2"><g id="Layer_1-2" data-name="Layer 1"><polygon class="cls-1" points="1.417 127.688 1.417 43.654 74.194 1.637 146.969 43.654 146.969 127.688 74.194 169.705 1.417 127.688"/><path class="cls-2" d="M74.193,3.273l71.359,41.2v82.4l-71.359,41.2L2.835,126.87v-82.4l71.358-41.2m0-3.273L0,42.836v85.67l74.193,42.836,74.193-42.836V42.836L74.193,0Z"/><path class="cls-2" d="M97.3,98.39a1.417,1.417,0,0,1-.59-2.706,48.041,48.041,0,0,1,9.405-3.359,39.493,39.493,0,0,0,.155-13.645,28.2,28.2,0,0,0-3.124-5.767,1.408,1.408,0,0,1-.281-.717,12.393,12.393,0,0,1-5.824,1.729,8.3,8.3,0,0,1-4.124,2.829,5.332,5.332,0,0,1-1.307.17,5.033,5.033,0,0,1-3.3-1.293,5.378,5.378,0,0,1-1.044-7.51,11.5,11.5,0,0,1-1.207-7.643A10.287,10.287,0,0,1,90.6,54.344c-1.17-3.049-.048-6.263,2.913-8.259a8.685,8.685,0,0,1,4.876-1.5,8.46,8.46,0,0,1,4.149,1.084c.361.153.487.2.533.22l.049.019a1.433,1.433,0,0,1,.15-.449,7.515,7.515,0,0,1,6.408-3.808c.189-.011.375-.019.562-.02h.07c.191,0,.341,0,.492.01a9.789,9.789,0,0,1,6.966,3.338,16.038,16.038,0,0,1,6.945-1.618,14.248,14.248,0,0,1,7.62,2.164,12.354,12.354,0,0,1,5.821,12.1,3.7,3.7,0,0,1,2.71,3.087,4.33,4.33,0,0,1-1.242,4.036,8.632,8.632,0,0,1,2.609,5.068,6.763,6.763,0,0,1-2.107,5.733,8.29,8.29,0,0,1-5.908,2.66q-.33,0-.658-.03a8.522,8.522,0,0,1-6.123-3.733,7.424,7.424,0,0,1-1.682.2,5.868,5.868,0,0,1-3.725-1.261,4.826,4.826,0,0,1-1.81-3.771,1.376,1.376,0,0,1-.122.143,22.2,22.2,0,0,0-2.848,3.583c.666-.335,1.38-.653,2.15-.96a1.417,1.417,0,0,1,1.51,2.335,18.835,18.835,0,0,0-6,10.3,19.167,19.167,0,0,0,2.122,7.25,44.511,44.511,0,0,1,9.488,3.429,1.417,1.417,0,0,1-.6,2.7Zm8.691-29.216a1.417,1.417,0,0,1,.935.532,24.468,24.468,0,0,1,2.434,3.892q.15-.343.3-.692a42.039,42.039,0,0,0-2.084-8.86A9.892,9.892,0,0,1,105.989,69.174Zm5.67-8.249c.354.87.677,1.756.973,2.666.03-.119.061-.235.09-.347a1.419,1.419,0,0,1,1.258-1.057c.039,0,.077,0,.115,0a1.4,1.4,0,0,1,.194.013,10,10,0,0,1-.279-1.141,4.688,4.688,0,0,1-.764.058A7.442,7.442,0,0,1,111.659,60.925Z"/><path class="cls-1" d="M110.314,43.045c.14,0,.281,0,.421.011a8.4,8.4,0,0,1,6.113,3.03l.534.664.76-.378a14.75,14.75,0,0,1,6.574-1.6,12.852,12.852,0,0,1,6.864,1.946,10.95,10.95,0,0,1,5.129,11.048l-.145,1.06,1.061.131a2.25,2.25,0,0,1,1.849,2.012,2.849,2.849,0,0,1-1.008,2.885l-1.064.756.962.884a7.377,7.377,0,0,1,2.46,4.472,5.379,5.379,0,0,1-1.7,4.575,6.9,6.9,0,0,1-4.9,2.241c-.177,0-.355-.008-.531-.024a7.325,7.325,0,0,1-5.243-3.345l-.428-.594-.7.188a6.082,6.082,0,0,1-1.557.211,4.42,4.42,0,0,1-2.827-.94,3.612,3.612,0,0,1-1.181-3.779l.2-.954-.933-.276a8.254,8.254,0,0,1-5.664-6.8l-.177-1.2-1.163.336a2.818,2.818,0,0,1-.763.09,5.319,5.319,0,0,1-2.786-.765l-.976-.76-.6,1.082a3.814,3.814,0,0,1-2.129,1.756l-.82.283.117.859a8.789,8.789,0,0,1-2.005,7.23,10,10,0,0,1-7.237,3.136l-.47.021-.3.368a6.978,6.978,0,0,1-3.475,2.474,3.881,3.881,0,0,1-.96.127,3.655,3.655,0,0,1-2.4-.965,4.015,4.015,0,0,1-.675-5.773l.367-.516-.279-.569A10.217,10.217,0,0,1,87.435,60.8a9.088,9.088,0,0,1,4.2-5.445l.732-.487-.35-.81c-1.186-2.748.022-5.268,2.291-6.8A7.335,7.335,0,0,1,98.391,46a7.1,7.1,0,0,1,3.524.942,7.055,7.055,0,0,1,1.287.6h3.316l-1.994-1.418a6.128,6.128,0,0,1,5.246-3.058c.16-.01.32-.016.481-.017h.063m-.2,18.137h0m0,0h0l.149.071a41.112,41.112,0,0,1,2.3,7.746c.564-1.785,1.056-3.585,1.527-5.4a10.6,10.6,0,0,0,1.534,2.482c-.586,2.169-1.234,4.345-2.043,6.515a25.326,25.326,0,0,1,3.655-4.952,9.918,9.918,0,0,0,1.842,1.117,22.178,22.178,0,0,0-4.857,7.4c-.093.376-.182.756-.262,1.142a18.017,18.017,0,0,1,5.961-3.613,20.225,20.225,0,0,0-6.449,11.231,20.535,20.535,0,0,0,2.631,8.6,41.683,41.683,0,0,1,9.807,3.454H97.3a44.193,44.193,0,0,1,10.022-3.45,40.947,40.947,0,0,0,.315-15.252,29.693,29.693,0,0,0-3.362-6.215,10.36,10.36,0,0,0,1.357-1.272c.06-.068.12-.137.177-.205a28.961,28.961,0,0,1,3.529,6.307l.017-.008a41.562,41.562,0,0,0,1.754-3.782A42.874,42.874,0,0,0,108.5,62.514a5.849,5.849,0,0,0,1.612-1.332m.2-20.972h-.086c-.218,0-.429.01-.639.023a9.05,9.05,0,0,0-7.122,3.813,9.961,9.961,0,0,0-4.076-.882,10.107,10.107,0,0,0-5.669,1.745,8.23,8.23,0,0,0-3.772,8.9,11.374,11.374,0,0,0-4.276,6.352,12.471,12.471,0,0,0,.989,7.875A6.745,6.745,0,0,0,87.4,76.72a6.483,6.483,0,0,0,4.209,1.621,6.738,6.738,0,0,0,1.655-.214A9.4,9.4,0,0,0,97.719,75.3a14.07,14.07,0,0,0,4.548-1.181,28.229,28.229,0,0,1,2.633,4.974,37.994,37.994,0,0,1-.024,12.077A52.123,52.123,0,0,0,96.118,94.4a2.835,2.835,0,0,0,1.18,5.412h28.615a2.835,2.835,0,0,0,1.208-5.4,47.673,47.673,0,0,0-9.129-3.381A17.886,17.886,0,0,1,116.34,85.1a17.338,17.338,0,0,1,5.556-9.374,2.851,2.851,0,0,0,.4-.487,7.536,7.536,0,0,0,3.458.818,8.557,8.557,0,0,0,1.1-.073,9.88,9.88,0,0,0,6.575,3.6c.26.023.524.035.785.035a9.673,9.673,0,0,0,6.914-3.078,8.223,8.223,0,0,0,2.509-6.894,9.713,9.713,0,0,0-2.149-4.948,5.914,5.914,0,0,0,.766-4.26,5.261,5.261,0,0,0-2.609-3.765,13.7,13.7,0,0,0-6.557-12.35,15.674,15.674,0,0,0-8.376-2.384,17.258,17.258,0,0,0-6.608,1.335,11.285,11.285,0,0,0-7.229-3.051c-.189-.01-.377-.015-.565-.015Zm-.2,23.806h0Z"/><path class="cls-2" d="M17.581,111.513a1.418,1.418,0,0,1-.59-2.706,48.041,48.041,0,0,1,9.405-3.359A39.463,39.463,0,0,0,26.551,91.8a28.129,28.129,0,0,0-3.124-5.768,1.418,1.418,0,0,1-.282-.718,12.367,12.367,0,0,1-5.822,1.729,8.3,8.3,0,0,1-4.124,2.83,5.393,5.393,0,0,1-1.307.17,5.035,5.035,0,0,1-3.3-1.293,5.379,5.379,0,0,1-1.045-7.51A11.5,11.5,0,0,1,6.338,73.6a10.286,10.286,0,0,1,4.548-6.135c-1.172-3.047-.05-6.262,2.912-8.258a8.687,8.687,0,0,1,4.876-1.5,8.457,8.457,0,0,1,4.149,1.084c.361.153.487.2.534.22l.049.019a1.405,1.405,0,0,1,.149-.449,7.519,7.519,0,0,1,6.408-3.808c.184-.012.372-.019.563-.02H30.6c.191,0,.341,0,.492.011A9.785,9.785,0,0,1,38.053,58.1,16.047,16.047,0,0,1,45,56.481a14.239,14.239,0,0,1,7.62,2.166,12.355,12.355,0,0,1,5.821,12.1,3.7,3.7,0,0,1,2.71,3.088,4.329,4.329,0,0,1-1.243,4.035,8.632,8.632,0,0,1,2.609,5.068,6.763,6.763,0,0,1-2.107,5.733,8.29,8.29,0,0,1-5.908,2.66q-.33,0-.658-.03a8.524,8.524,0,0,1-6.123-3.733,7.419,7.419,0,0,1-1.682.2A5.869,5.869,0,0,1,42.313,86.5,4.829,4.829,0,0,1,40.5,82.73a1.376,1.376,0,0,1-.122.143,22.265,22.265,0,0,0-2.849,3.583c.667-.335,1.381-.653,2.151-.96a1.418,1.418,0,0,1,1.511,2.335,18.823,18.823,0,0,0-6,10.3,19.184,19.184,0,0,0,2.121,7.25,44.511,44.511,0,0,1,9.488,3.429,1.417,1.417,0,0,1-.6,2.7ZM26.272,82.3a1.417,1.417,0,0,1,.935.532,24.468,24.468,0,0,1,2.434,3.892c.1-.229.2-.459.3-.692a41.977,41.977,0,0,0-2.084-8.86A9.892,9.892,0,0,1,26.272,82.3Zm5.671-8.249q.529,1.305.972,2.666c.031-.118.061-.235.09-.347a1.419,1.419,0,0,1,1.258-1.057c.039,0,.077,0,.115,0a1.4,1.4,0,0,1,.2.013,10.269,10.269,0,0,1-.28-1.141,4.684,4.684,0,0,1-.763.058A7.428,7.428,0,0,1,31.943,74.048Z"/><path class="cls-1" d="M30.6,56.168c.141,0,.282,0,.423.011a8.4,8.4,0,0,1,6.113,3.029l.534.665.76-.378A14.75,14.75,0,0,1,45,57.9a12.852,12.852,0,0,1,6.864,1.946,10.95,10.95,0,0,1,5.129,11.048l-.145,1.06,1.061.131A2.249,2.249,0,0,1,59.757,74.1a2.846,2.846,0,0,1-1.007,2.885l-1.065.756.962.884a7.379,7.379,0,0,1,2.461,4.472,5.382,5.382,0,0,1-1.7,4.575,6.9,6.9,0,0,1-4.9,2.241c-.177,0-.354-.009-.531-.024a7.325,7.325,0,0,1-5.243-3.345l-.428-.594-.7.188a6.077,6.077,0,0,1-1.557.211,4.42,4.42,0,0,1-2.827-.94,3.612,3.612,0,0,1-1.181-3.779l.2-.954L41.3,80.4a8.254,8.254,0,0,1-5.664-6.805l-.176-1.2-1.163.336a2.825,2.825,0,0,1-.764.09,5.322,5.322,0,0,1-2.786-.765l-.976-.76-.6,1.082a3.816,3.816,0,0,1-2.128,1.756l-.821.283.117.859a8.792,8.792,0,0,1-2,7.23A10.006,10.006,0,0,1,17.1,85.639l-.47.021-.3.368A6.974,6.974,0,0,1,12.851,88.5a3.875,3.875,0,0,1-.96.127A3.657,3.657,0,0,1,9.5,87.664a4.015,4.015,0,0,1-.675-5.773l.368-.516-.28-.569a10.223,10.223,0,0,1-1.191-6.883,9.094,9.094,0,0,1,4.2-5.445l.731-.488-.349-.809c-1.186-2.748.021-5.268,2.29-6.8a7.335,7.335,0,0,1,4.084-1.26,7.1,7.1,0,0,1,3.524.942,7.055,7.055,0,0,1,1.287.6H26.8l-1.994-1.418a6.13,6.13,0,0,1,5.247-3.058c.159-.01.32-.016.48-.017H30.6m-.2,18.137h0m0,0h0l.149.071a41.112,41.112,0,0,1,2.3,7.746c.564-1.785,1.056-3.585,1.527-5.4a10.566,10.566,0,0,0,1.535,2.482c-.587,2.169-1.234,4.345-2.044,6.515a25.332,25.332,0,0,1,3.656-4.952,9.853,9.853,0,0,0,1.842,1.117,22.166,22.166,0,0,0-4.858,7.4c-.093.376-.182.756-.261,1.142a17.986,17.986,0,0,1,5.96-3.613,20.218,20.218,0,0,0-6.448,11.231,20.533,20.533,0,0,0,2.63,8.6A41.667,41.667,0,0,1,46.2,110.1H17.581a44.133,44.133,0,0,1,10.023-3.45,40.968,40.968,0,0,0,.314-15.252,29.647,29.647,0,0,0-3.362-6.215,10.432,10.432,0,0,0,1.358-1.272l.177-.2a28.958,28.958,0,0,1,3.528,6.307L29.637,90c.658-1.251,1.238-2.511,1.753-3.782a42.829,42.829,0,0,0-2.606-10.582A5.834,5.834,0,0,0,30.4,74.305m.2-20.972h-.083c-.219,0-.43.01-.639.023A9.051,9.051,0,0,0,22.75,57.17a9.957,9.957,0,0,0-4.076-.882,10.107,10.107,0,0,0-5.669,1.745,8.231,8.231,0,0,0-3.772,8.895A11.371,11.371,0,0,0,4.957,73.28a12.478,12.478,0,0,0,.989,7.875,6.745,6.745,0,0,0,1.736,8.688,6.485,6.485,0,0,0,4.209,1.621,6.738,6.738,0,0,0,1.655-.214A9.411,9.411,0,0,0,18,88.418a14.071,14.071,0,0,0,4.547-1.181,28.194,28.194,0,0,1,2.633,4.974,37.994,37.994,0,0,1-.024,12.077,52.1,52.1,0,0,0-8.757,3.23,2.835,2.835,0,0,0,1.179,5.413H46.2a2.835,2.835,0,0,0,1.208-5.4,47.624,47.624,0,0,0-9.129-3.381,17.91,17.91,0,0,1-1.652-5.928,17.338,17.338,0,0,1,5.556-9.374,2.851,2.851,0,0,0,.4-.487,7.539,7.539,0,0,0,3.458.818,8.572,8.572,0,0,0,1.1-.073,9.875,9.875,0,0,0,6.574,3.6c.26.023.524.035.785.035a9.673,9.673,0,0,0,6.914-3.078,8.22,8.22,0,0,0,2.509-6.894,9.713,9.713,0,0,0-2.149-4.948,5.91,5.91,0,0,0,.766-4.26A5.256,5.256,0,0,0,59.932,69.8a13.7,13.7,0,0,0-6.557-12.351A15.679,15.679,0,0,0,45,55.064,17.262,17.262,0,0,0,38.391,56.4a11.285,11.285,0,0,0-7.229-3.051c-.19-.01-.378-.015-.567-.015Zm-.2,23.806h0Z"/><path class="cls-2" d="M44.18,104.394a1.417,1.417,0,0,1-.6-2.7,44.64,44.64,0,0,1,9.489-3.43,19.2,19.2,0,0,0,2.122-7.25,18.84,18.84,0,0,0-6-10.3,1.418,1.418,0,0,1,.986-2.436,1.4,1.4,0,0,1,.525.1c.769.306,1.483.625,2.149.96a22.21,22.21,0,0,0-2.849-3.583,1.355,1.355,0,0,1-.121-.142,4.83,4.83,0,0,1-1.811,3.771,5.867,5.867,0,0,1-3.725,1.26,7.409,7.409,0,0,1-1.681-.2,8.522,8.522,0,0,1-6.124,3.733c-.218.02-.438.03-.658.03a8.3,8.3,0,0,1-5.908-2.659,6.766,6.766,0,0,1-2.106-5.734,8.644,8.644,0,0,1,2.608-5.068,4.33,4.33,0,0,1-1.242-4.035,3.7,3.7,0,0,1,2.71-3.088,12.354,12.354,0,0,1,5.821-12.1,14.243,14.243,0,0,1,7.619-2.165,16.045,16.045,0,0,1,6.947,1.619,9.785,9.785,0,0,1,6.962-3.337q.257-.012.507-.012c.254,0,.442.008.625.021a7.517,7.517,0,0,1,6.4,3.808,1.4,1.4,0,0,1,.148.446l.064-.021c.032-.012.157-.061.519-.215A8.46,8.46,0,0,1,71.7,50.587a8.685,8.685,0,0,1,4.876,1.5c2.962,2,4.084,5.211,2.913,8.258a10.3,10.3,0,0,1,4.548,6.134,11.522,11.522,0,0,1-1.208,7.645,5.377,5.377,0,0,1-1.043,7.509,5.044,5.044,0,0,1-3.3,1.293,5.387,5.387,0,0,1-1.307-.17,8.316,8.316,0,0,1-4.125-2.83A12.378,12.378,0,0,1,67.231,78.2a1.419,1.419,0,0,1-.283.718,27.549,27.549,0,0,0-3.124,5.767,39.469,39.469,0,0,0,.156,13.645,48.058,48.058,0,0,1,9.4,3.359,1.417,1.417,0,0,1-.59,2.706ZM60.735,79.6a24.381,24.381,0,0,1,2.433-3.891,1.417,1.417,0,0,1,.937-.532,9.88,9.88,0,0,1-1.58-5.129A41.909,41.909,0,0,0,60.44,78.91C60.536,79.142,60.635,79.373,60.735,79.6Zm-4.622-11.41a1.419,1.419,0,0,1,1.257,1.057c.03.112.06.228.09.347.3-.91.619-1.8.973-2.666a7.435,7.435,0,0,1-1.587.188,4.693,4.693,0,0,1-.764-.059A10.014,10.014,0,0,1,55.8,68.2,1.4,1.4,0,0,1,56,68.187C56.035,68.187,56.073,68.188,56.113,68.191Z"/><path class="cls-1" d="M59.78,49.049h.061c.161,0,.322.007.481.017a6.128,6.128,0,0,1,5.246,3.058l-1.994,1.418H66.89a7.153,7.153,0,0,1,1.287-.6A7.114,7.114,0,0,1,71.7,52a7.338,7.338,0,0,1,4.083,1.26c2.27,1.531,3.477,4.051,2.291,6.8l-.35.809.732.488a9.1,9.1,0,0,1,4.2,5.444,10.225,10.225,0,0,1-1.191,6.884l-.28.569.368.516a4.016,4.016,0,0,1-.675,5.773,3.657,3.657,0,0,1-2.395.965,3.868,3.868,0,0,1-.96-.127,6.976,6.976,0,0,1-3.476-2.474l-.3-.368-.47-.021a10.006,10.006,0,0,1-7.237-3.136,8.788,8.788,0,0,1-2-7.23l.116-.859-.82-.283a3.813,3.813,0,0,1-2.128-1.757l-.6-1.082-.975.761a5.326,5.326,0,0,1-2.787.765,2.818,2.818,0,0,1-.763-.09l-1.163-.336-.177,1.2a8.251,8.251,0,0,1-5.663,6.806l-.933.275.2.955a3.616,3.616,0,0,1-1.181,3.779,4.421,4.421,0,0,1-2.828.94,6.075,6.075,0,0,1-1.556-.211l-.7-.188-.427.594a7.32,7.32,0,0,1-5.243,3.344c-.177.016-.354.024-.532.024a6.9,6.9,0,0,1-4.9-2.24,5.382,5.382,0,0,1-1.7-4.575A7.374,7.374,0,0,1,31.729,71.5l.961-.884-1.064-.757a2.845,2.845,0,0,1-1.007-2.884,2.249,2.249,0,0,1,1.849-2.012l1.06-.131-.145-1.06a10.95,10.95,0,0,1,5.13-11.048,12.849,12.849,0,0,1,6.864-1.946,14.753,14.753,0,0,1,6.574,1.6l.76.378.534-.665a8.4,8.4,0,0,1,6.112-3.029c.142-.008.283-.011.423-.011m.2,18.136a5.835,5.835,0,0,0,1.612,1.333A42.828,42.828,0,0,0,58.986,79.1a41.676,41.676,0,0,0,1.753,3.782l.018.007a28.963,28.963,0,0,1,3.528-6.307c.058.069.117.138.177.205A10.309,10.309,0,0,0,65.82,78.06a29.625,29.625,0,0,0-3.363,6.215,40.968,40.968,0,0,0,.315,15.252,44.084,44.084,0,0,1,10.023,3.45H44.18a41.652,41.652,0,0,1,9.807-3.454,20.533,20.533,0,0,0,2.63-8.6,20.223,20.223,0,0,0-6.448-11.231,18.006,18.006,0,0,1,5.96,3.613c-.079-.386-.168-.766-.261-1.142a22.2,22.2,0,0,0-4.858-7.4,9.833,9.833,0,0,0,1.842-1.117A25.308,25.308,0,0,1,56.508,78.6c-.81-2.17-1.458-4.347-2.044-6.515A10.566,10.566,0,0,0,56,69.6c.471,1.813.962,3.614,1.527,5.4a41.016,41.016,0,0,1,2.3-7.746l.148-.071h0m-.2-20.971c-.188,0-.377.005-.566.014a11.291,11.291,0,0,0-7.23,3.052,17.238,17.238,0,0,0-6.607-1.335A15.661,15.661,0,0,0,37,50.328a13.7,13.7,0,0,0-6.557,12.351,5.261,5.261,0,0,0-2.61,3.765A5.915,5.915,0,0,0,28.6,70.7a9.713,9.713,0,0,0-2.149,4.949,8.217,8.217,0,0,0,2.509,6.893,9.669,9.669,0,0,0,6.913,3.078c.261,0,.526-.012.786-.035a9.882,9.882,0,0,0,6.574-3.6,8.566,8.566,0,0,0,1.1.072,7.555,7.555,0,0,0,3.459-.817,2.761,2.761,0,0,0,.4.487A17.338,17.338,0,0,1,53.753,91.1,17.941,17.941,0,0,1,52.1,97.032a47.655,47.655,0,0,0-9.13,3.381,2.835,2.835,0,0,0,1.209,5.4H72.8a2.835,2.835,0,0,0,1.179-5.413,52.1,52.1,0,0,0-8.757-3.23,37.936,37.936,0,0,1-.024-12.077,28.194,28.194,0,0,1,2.633-4.974A14.083,14.083,0,0,0,72.373,81.3a9.4,9.4,0,0,0,4.457,2.832,6.738,6.738,0,0,0,1.655.214,6.485,6.485,0,0,0,4.209-1.621,6.744,6.744,0,0,0,1.736-8.687,12.482,12.482,0,0,0,.989-7.876,11.371,11.371,0,0,0-4.276-6.352,8.233,8.233,0,0,0-3.773-8.9A10.108,10.108,0,0,0,71.7,49.169a9.965,9.965,0,0,0-4.077.882A9.05,9.05,0,0,0,60.5,46.238q-.306-.019-.613-.023Z"/><path class="cls-3" d="M62.4,98.323c7.95-7.44,21.67-12.31,35.19-12.31,17.58,0,29.48,8.23,34.63,19.62"/><path class="cls-3" d="M76.57,104.643a38.746,38.746,0,0,0-14.17-6.32,53.089,53.089,0,0,0-12.15-1.35c-17.58,0-33.48,7.68-38.63,21.06"/><path class="cls-2" d="M81.81,111.513a1.417,1.417,0,0,1-.605-2.7,44.556,44.556,0,0,1,9.489-3.429,19.216,19.216,0,0,0,2.122-7.25,18.84,18.84,0,0,0-6-10.3,1.417,1.417,0,0,1,1.51-2.335c.77.307,1.484.625,2.15.96a22.21,22.21,0,0,0-2.849-3.583,1.355,1.355,0,0,1-.121-.142A4.83,4.83,0,0,1,85.692,86.5a5.87,5.87,0,0,1-3.725,1.261,7.411,7.411,0,0,1-1.681-.2A8.52,8.52,0,0,1,74.163,91.3c-.218.02-.438.03-.658.03A8.293,8.293,0,0,1,67.6,88.667a6.762,6.762,0,0,1-2.106-5.734A8.639,8.639,0,0,1,68.1,77.865a4.33,4.33,0,0,1-1.242-4.035,3.7,3.7,0,0,1,2.711-3.088,12.352,12.352,0,0,1,5.82-12.1,14.243,14.243,0,0,1,7.619-2.165A16.04,16.04,0,0,1,89.952,58.1a9.789,9.789,0,0,1,6.963-3.337c.171-.008.34-.012.508-.012.252,0,.44.009.625.021a7.515,7.515,0,0,1,6.4,3.808,1.4,1.4,0,0,1,.149.446l.064-.021c.032-.012.157-.061.519-.215a8.46,8.46,0,0,1,4.149-1.084,8.685,8.685,0,0,1,4.876,1.5c2.962,2,4.084,5.211,2.913,8.259a10.288,10.288,0,0,1,4.549,6.134,11.514,11.514,0,0,1-1.209,7.644,5.378,5.378,0,0,1-1.043,7.509,5.044,5.044,0,0,1-3.3,1.293,5.387,5.387,0,0,1-1.307-.17,8.3,8.3,0,0,1-4.125-2.83,12.366,12.366,0,0,1-5.821-1.729,1.419,1.419,0,0,1-.283.718,27.533,27.533,0,0,0-3.124,5.768,39.464,39.464,0,0,0,.156,13.644,48.11,48.11,0,0,1,9.405,3.359,1.417,1.417,0,0,1-.59,2.706ZM98.365,86.721A24.328,24.328,0,0,1,100.8,82.83a1.416,1.416,0,0,1,.937-.533,9.88,9.88,0,0,1-1.58-5.129,41.909,41.909,0,0,0-2.085,8.861C98.166,86.262,98.265,86.492,98.365,86.721ZM93.742,75.31A1.419,1.419,0,0,1,95,76.367c.03.113.06.229.091.348q.443-1.365.973-2.667a7.444,7.444,0,0,1-1.588.188,4.7,4.7,0,0,1-.764-.058,10.048,10.048,0,0,1-.279,1.141,1.4,1.4,0,0,1,.194-.013C93.665,75.306,93.7,75.307,93.742,75.31Z"/><path class="cls-1" d="M97.41,56.168h.061c.161,0,.322.007.481.017a6.128,6.128,0,0,1,5.246,3.058L101.2,60.662h3.316a7.087,7.087,0,0,1,1.287-.6,7.1,7.1,0,0,1,3.525-.942,7.33,7.33,0,0,1,4.083,1.26c2.27,1.53,3.477,4.05,2.291,6.8l-.35.809.732.488a9.094,9.094,0,0,1,4.2,5.445,10.223,10.223,0,0,1-1.191,6.883l-.28.569.368.516a4.016,4.016,0,0,1-.675,5.773,3.657,3.657,0,0,1-2.4.965,3.868,3.868,0,0,1-.96-.127,6.976,6.976,0,0,1-3.476-2.474l-.3-.368-.47-.021a10.006,10.006,0,0,1-7.237-3.136,8.788,8.788,0,0,1-2-7.23l.116-.859-.82-.283a3.816,3.816,0,0,1-2.128-1.756l-.6-1.082-.975.76a5.326,5.326,0,0,1-2.787.765,2.818,2.818,0,0,1-.763-.09l-1.163-.336-.177,1.2A8.251,8.251,0,0,1,86.71,80.4l-.933.276.2.954a3.616,3.616,0,0,1-1.181,3.779,4.421,4.421,0,0,1-2.828.94,6.075,6.075,0,0,1-1.556-.211l-.7-.188-.427.594a7.325,7.325,0,0,1-5.243,3.345c-.177.015-.354.024-.532.024a6.9,6.9,0,0,1-4.9-2.241,5.382,5.382,0,0,1-1.7-4.575,7.374,7.374,0,0,1,2.461-4.472l.961-.884-1.064-.756A2.846,2.846,0,0,1,68.249,74.1,2.249,2.249,0,0,1,70.1,72.084l1.06-.131-.145-1.06a10.95,10.95,0,0,1,5.13-11.048A12.849,12.849,0,0,1,83.007,57.9a14.753,14.753,0,0,1,6.574,1.6l.76.378.534-.665a8.4,8.4,0,0,1,6.112-3.029c.142-.007.283-.011.423-.011m.2,18.137a5.849,5.849,0,0,0,1.612,1.332,42.828,42.828,0,0,0-2.605,10.582A41.676,41.676,0,0,0,98.369,90l.018.008a28.916,28.916,0,0,1,3.528-6.307c.058.068.117.137.177.2a10.369,10.369,0,0,0,1.358,1.272,29.65,29.65,0,0,0-3.363,6.215,40.989,40.989,0,0,0,.315,15.252,44.133,44.133,0,0,1,10.023,3.45H81.81a41.652,41.652,0,0,1,9.807-3.454,20.533,20.533,0,0,0,2.63-8.6A20.223,20.223,0,0,0,87.8,86.813a18.006,18.006,0,0,1,5.96,3.613c-.079-.386-.168-.766-.261-1.142a22.181,22.181,0,0,0-4.858-7.4,9.886,9.886,0,0,0,1.842-1.117,25.332,25.332,0,0,1,3.656,4.952c-.81-2.17-1.458-4.346-2.044-6.515a10.566,10.566,0,0,0,1.535-2.482c.471,1.814.962,3.614,1.527,5.4a41.038,41.038,0,0,1,2.3-7.746l.148-.071h0m-.2-20.972c-.188,0-.377.005-.566.015a11.29,11.29,0,0,0-7.23,3.051,17.257,17.257,0,0,0-6.607-1.335,15.653,15.653,0,0,0-8.376,2.384A13.7,13.7,0,0,0,68.074,69.8a5.261,5.261,0,0,0-2.61,3.765,5.915,5.915,0,0,0,.767,4.26,9.713,9.713,0,0,0-2.149,4.949,8.217,8.217,0,0,0,2.509,6.893A9.669,9.669,0,0,0,73.5,92.743c.261,0,.526-.012.786-.035a9.878,9.878,0,0,0,6.574-3.6,8.568,8.568,0,0,0,1.1.073,7.543,7.543,0,0,0,3.459-.818,2.761,2.761,0,0,0,.4.487,17.338,17.338,0,0,1,5.556,9.374,17.934,17.934,0,0,1-1.652,5.928,47.655,47.655,0,0,0-9.13,3.381,2.835,2.835,0,0,0,1.209,5.4h28.615a2.835,2.835,0,0,0,1.179-5.413,52.191,52.191,0,0,0-8.757-3.23,37.936,37.936,0,0,1-.024-12.077,28.257,28.257,0,0,1,2.632-4.974A14.1,14.1,0,0,0,110,88.418a9.411,9.411,0,0,0,4.457,2.833,6.784,6.784,0,0,0,1.655.213,6.485,6.485,0,0,0,4.209-1.621,6.744,6.744,0,0,0,1.736-8.687,12.482,12.482,0,0,0,.989-7.876,11.371,11.371,0,0,0-4.276-6.352,8.233,8.233,0,0,0-3.773-8.9,10.108,10.108,0,0,0-5.668-1.744,9.965,9.965,0,0,0-4.077.882,9.05,9.05,0,0,0-7.121-3.813q-.306-.019-.613-.023Z"/><path class="cls-3" d="M56.041,128.3c.924-13.615,14.05-25.32,31.63-25.32s38.48,9.46,43.63,25.32"/></g></g></svg>