<svg xmlns="http://www.w3.org/2000/svg" viewBox="0 0 148.386 171.342"><defs><style>.cls-1{fill:#cfff7d;}.cls-2{fill:#97d758;}</style></defs><title>Plains-DeepForest</title><g id="Layer_2" data-name="Layer 2"><g id="Layer_1-2" data-name="Layer 1"><polygon class="cls-1" points="1.417 127.688 1.417 43.654 74.194 1.637 146.969 43.654 146.969 127.688 74.194 169.705 1.417 127.688"/><path class="cls-2" d="M74.193,3.273l71.359,41.2v82.4l-71.359,41.2L2.835,126.87v-82.4l71.358-41.2m0-3.273L0,42.836v85.67l74.193,42.836,74.193-42.836V42.836L74.193,0Z"/><path class="cls-2" d="M93.768,109.634a1.523,1.523,0,0,1-.633-2.908,51.6,51.6,0,0,1,10.1-3.606,42.4,42.4,0,0,0,.166-14.655,30.258,30.258,0,0,0-3.355-6.2,1.514,1.514,0,0,1-.3-.77,13.309,13.309,0,0,1-6.256,1.857,8.887,8.887,0,0,1-4.428,3.038,5.749,5.749,0,0,1-1.4.183,5.41,5.41,0,0,1-3.547-1.389,5.775,5.775,0,0,1-1.121-8.065,12.359,12.359,0,0,1-1.3-8.208,11.043,11.043,0,0,1,4.885-6.59c-1.258-3.273-.052-6.727,3.128-8.87a9.336,9.336,0,0,1,5.237-1.614A9.09,9.09,0,0,1,99.4,53.007c.386.164.522.217.572.235l.053.021a1.5,1.5,0,0,1,.16-.482,8.077,8.077,0,0,1,6.882-4.091c.2-.011.4-.019.6-.022h.106c.169,0,.338,0,.508.012a10.513,10.513,0,0,1,7.479,3.585,17.228,17.228,0,0,1,7.46-1.738,15.307,15.307,0,0,1,8.185,2.325,13.272,13.272,0,0,1,6.251,12.991,3.975,3.975,0,0,1,2.911,3.316,4.655,4.655,0,0,1-1.333,4.335,9.267,9.267,0,0,1,2.8,5.442,7.264,7.264,0,0,1-2.262,6.159,8.9,8.9,0,0,1-6.344,2.856c-.237,0-.474-.011-.709-.031a9.157,9.157,0,0,1-6.576-4.01,7.884,7.884,0,0,1-1.8.214,6.307,6.307,0,0,1-4-1.354,5.186,5.186,0,0,1-1.945-4.05,1.538,1.538,0,0,1-.13.152,23.952,23.952,0,0,0-3.06,3.849c.716-.36,1.483-.7,2.309-1.031a1.522,1.522,0,0,1,1.622,2.508,20.217,20.217,0,0,0-6.447,11.066,20.611,20.611,0,0,0,2.279,7.788,47.907,47.907,0,0,1,10.191,3.682,1.523,1.523,0,0,1-.649,2.9ZM103.1,78.253a1.522,1.522,0,0,1,1,.572,26.222,26.222,0,0,1,2.614,4.181c.107-.246.213-.494.316-.743a44.919,44.919,0,0,0-2.238-9.517A10.627,10.627,0,0,1,103.1,78.253Zm6.09-8.86c.379.935.727,1.887,1.044,2.864.034-.127.066-.251.1-.372a1.524,1.524,0,0,1,1.351-1.135c.041,0,.083,0,.124,0a1.483,1.483,0,0,1,.21.015,10.875,10.875,0,0,1-.3-1.227,5.016,5.016,0,0,1-.819.063A8.006,8.006,0,0,1,109.193,69.393Z"/><path class="cls-1" d="M107.748,50.19c.15,0,.3,0,.452.011a9.031,9.031,0,0,1,6.566,3.255l.573.714.817-.407a15.848,15.848,0,0,1,7.06-1.714,13.8,13.8,0,0,1,7.372,2.09,11.759,11.759,0,0,1,5.51,11.866l-.156,1.139,1.139.141a2.414,2.414,0,0,1,1.986,2.16,3.059,3.059,0,0,1-1.082,3.1l-1.143.812,1.033.95a7.919,7.919,0,0,1,2.643,4.8,5.782,5.782,0,0,1-1.83,4.914,7.412,7.412,0,0,1-5.266,2.406c-.19,0-.381-.009-.571-.026a7.863,7.863,0,0,1-5.63-3.592l-.46-.638-.755.2a6.518,6.518,0,0,1-1.672.227,4.747,4.747,0,0,1-3.037-1.01,3.882,3.882,0,0,1-1.268-4.059l.212-1.025-1-.3a8.865,8.865,0,0,1-6.083-7.309l-.19-1.288-1.249.361a3.015,3.015,0,0,1-.82.1,5.7,5.7,0,0,1-2.992-.822l-1.048-.817-.642,1.163a4.1,4.1,0,0,1-2.286,1.887l-.881.3.126.923a9.441,9.441,0,0,1-2.153,7.765,10.745,10.745,0,0,1-7.773,3.368l-.505.023-.323.395a7.5,7.5,0,0,1-3.732,2.658,4.216,4.216,0,0,1-1.031.136,3.93,3.93,0,0,1-2.573-1.036,4.314,4.314,0,0,1-.725-6.2l.4-.554-.3-.612a10.985,10.985,0,0,1-1.28-7.393c.5-2.154,1.907-4.1,4.511-5.847l.786-.524-.375-.87c-1.274-2.951.022-5.658,2.46-7.3a7.88,7.88,0,0,1,4.386-1.354,7.628,7.628,0,0,1,3.785,1.012,7.6,7.6,0,0,1,1.383.642h3.561l-2.141-1.523a6.582,6.582,0,0,1,5.634-3.285c.171-.01.344-.017.517-.018h.067m-.215,19.479h0m0,0h0l.16.076a44.2,44.2,0,0,1,2.476,8.319c.606-1.916,1.134-3.85,1.64-5.8a11.35,11.35,0,0,0,1.648,2.666c-.63,2.329-1.325,4.666-2.2,7a27.2,27.2,0,0,1,3.926-5.32,10.621,10.621,0,0,0,1.979,1.2,23.841,23.841,0,0,0-5.218,7.947c-.1.4-.195.812-.28,1.226a19.343,19.343,0,0,1,6.4-3.88,21.716,21.716,0,0,0-6.925,12.063,22.059,22.059,0,0,0,2.825,9.235,44.726,44.726,0,0,1,10.533,3.71H93.768a47.384,47.384,0,0,1,10.765-3.706,44.01,44.01,0,0,0,.338-16.381,31.883,31.883,0,0,0-3.611-6.675,11.249,11.249,0,0,0,1.458-1.367c.064-.073.128-.147.19-.221a31.143,31.143,0,0,1,3.789,6.774l.019-.007c.708-1.344,1.33-2.7,1.884-4.063A46.046,46.046,0,0,0,105.8,71.1a6.29,6.29,0,0,0,1.732-1.432m.215-22.524h-.091c-.236,0-.462.011-.687.025a9.722,9.722,0,0,0-7.65,4.095,10.7,10.7,0,0,0-4.378-.947,10.854,10.854,0,0,0-6.088,1.874c-3.441,2.32-4.935,5.949-4.052,9.554a12.215,12.215,0,0,0-4.593,6.822,13.4,13.4,0,0,0,1.062,8.459,7.243,7.243,0,0,0,1.865,9.33A6.956,6.956,0,0,0,87.657,88.1a7.273,7.273,0,0,0,1.778-.229,10.108,10.108,0,0,0,4.786-3.042,15.091,15.091,0,0,0,4.884-1.268,30.3,30.3,0,0,1,2.828,5.342,40.759,40.759,0,0,1-.026,12.971,55.983,55.983,0,0,0-9.406,3.47,3.044,3.044,0,0,0,1.267,5.813H124.5a3.045,3.045,0,0,0,1.3-5.8,51.307,51.307,0,0,0-9.806-3.631,19.25,19.25,0,0,1-1.774-6.367,18.625,18.625,0,0,1,5.967-10.068,3.01,3.01,0,0,0,.432-.523,8.1,8.1,0,0,0,3.715.878,9.135,9.135,0,0,0,1.184-.078,10.607,10.607,0,0,0,7.061,3.868c.279.025.563.037.843.037a10.393,10.393,0,0,0,7.426-3.3,8.831,8.831,0,0,0,2.695-7.405,10.424,10.424,0,0,0-2.309-5.314,6.35,6.35,0,0,0,.824-4.576,5.651,5.651,0,0,0-2.8-4.044,14.718,14.718,0,0,0-7.042-13.265,16.829,16.829,0,0,0-9-2.559,18.52,18.52,0,0,0-7.1,1.433,12.124,12.124,0,0,0-7.765-3.277q-.306-.017-.607-.016Zm-.215,25.569h0Z"/><path class="cls-2" d="M18.629,109.634A1.523,1.523,0,0,1,18,106.726a51.627,51.627,0,0,1,10.1-3.606,42.427,42.427,0,0,0,.166-14.655,30.261,30.261,0,0,0-3.356-6.2,1.512,1.512,0,0,1-.3-.77,13.316,13.316,0,0,1-6.256,1.857,8.894,8.894,0,0,1-4.429,3.038,5.741,5.741,0,0,1-1.4.183,5.411,5.411,0,0,1-3.548-1.389,5.775,5.775,0,0,1-1.12-8.065,12.36,12.36,0,0,1-1.3-8.208,11.05,11.05,0,0,1,4.886-6.59c-1.258-3.273-.053-6.727,3.128-8.87A9.339,9.339,0,0,1,19.8,51.841a9.089,9.089,0,0,1,4.457,1.166c.387.164.522.217.572.235l.053.021a1.5,1.5,0,0,1,.16-.482,8.077,8.077,0,0,1,6.882-4.091c.2-.011.4-.019.6-.022h.105c.169,0,.338,0,.509.012a10.513,10.513,0,0,1,7.478,3.585,17.228,17.228,0,0,1,7.46-1.738,15.3,15.3,0,0,1,8.185,2.325,13.27,13.27,0,0,1,6.251,12.991,3.975,3.975,0,0,1,2.911,3.316,4.655,4.655,0,0,1-1.333,4.335,9.274,9.274,0,0,1,2.8,5.442A7.265,7.265,0,0,1,64.629,85.1a8.9,8.9,0,0,1-6.344,2.856c-.237,0-.473-.011-.709-.031A9.159,9.159,0,0,1,51,83.91a7.878,7.878,0,0,1-1.8.214,6.3,6.3,0,0,1-4-1.354,5.193,5.193,0,0,1-1.946-4.05,1.538,1.538,0,0,1-.13.152,23.945,23.945,0,0,0-3.059,3.849c.716-.36,1.482-.7,2.308-1.031A1.522,1.522,0,0,1,43.989,84.2a20.228,20.228,0,0,0-6.447,11.066,20.629,20.629,0,0,0,2.279,7.788,47.888,47.888,0,0,1,10.191,3.682,1.523,1.523,0,0,1-.649,2.9Zm9.335-31.381a1.519,1.519,0,0,1,1,.572,26.151,26.151,0,0,1,2.614,4.181c.108-.246.213-.494.317-.743a44.978,44.978,0,0,0-2.239-9.517A10.618,10.618,0,0,1,27.964,78.253Zm6.09-8.86c.38.935.727,1.887,1.045,2.864l.1-.372a1.526,1.526,0,0,1,1.351-1.135c.041,0,.083,0,.124,0a1.473,1.473,0,0,1,.21.015,10.875,10.875,0,0,1-.3-1.227,5.016,5.016,0,0,1-.819.063A8.013,8.013,0,0,1,34.054,69.393Z"/><path class="cls-1" d="M32.609,50.19c.151,0,.3,0,.453.011a9.03,9.03,0,0,1,6.565,3.255l.573.714.817-.407a15.849,15.849,0,0,1,7.061-1.714,13.806,13.806,0,0,1,7.372,2.09,11.76,11.76,0,0,1,5.509,11.866L60.8,67.144l1.139.141a2.416,2.416,0,0,1,1.986,2.16,3.059,3.059,0,0,1-1.083,3.1l-1.142.812,1.032.95a7.919,7.919,0,0,1,2.643,4.8,5.779,5.779,0,0,1-1.83,4.914,7.411,7.411,0,0,1-5.265,2.406c-.191,0-.381-.009-.571-.026a7.862,7.862,0,0,1-5.631-3.592l-.46-.638-.755.2A6.518,6.518,0,0,1,49.2,82.6a4.744,4.744,0,0,1-3.036-1.01,3.88,3.88,0,0,1-1.269-4.059l.213-1.025-1-.3A8.864,8.864,0,0,1,38.018,68.9l-.19-1.288-1.25.361a3,3,0,0,1-.819.1,5.711,5.711,0,0,1-2.993-.822l-1.048-.817L31.077,67.6a4.1,4.1,0,0,1-2.287,1.887l-.88.3.125.923a9.441,9.441,0,0,1-2.153,7.765,10.745,10.745,0,0,1-7.773,3.368l-.505.023-.322.395a7.5,7.5,0,0,1-3.733,2.658,4.21,4.21,0,0,1-1.031.136,3.926,3.926,0,0,1-2.572-1.036,4.313,4.313,0,0,1-.725-6.2l.394-.554-.3-.612a10.978,10.978,0,0,1-1.279-7.393c.5-2.154,1.906-4.1,4.511-5.847l.786-.524-.376-.87c-1.274-2.951.023-5.658,2.46-7.3A7.883,7.883,0,0,1,19.8,53.363a7.631,7.631,0,0,1,3.786,1.012,7.616,7.616,0,0,1,1.382.642h3.562l-2.142-1.523a6.582,6.582,0,0,1,5.635-3.285c.171-.01.343-.017.516-.018h.067m-.215,19.479H32.4m-.005,0h0c.052.026.106.051.159.076a44.051,44.051,0,0,1,2.476,8.319c.606-1.916,1.134-3.85,1.64-5.8a11.383,11.383,0,0,0,1.648,2.666c-.629,2.329-1.325,4.666-2.194,7a27.162,27.162,0,0,1,3.926-5.32,10.581,10.581,0,0,0,1.978,1.2,23.822,23.822,0,0,0-5.217,7.947c-.1.4-.2.812-.281,1.226a19.357,19.357,0,0,1,6.4-3.88,21.717,21.717,0,0,0-6.926,12.063A22.059,22.059,0,0,0,38.83,104.4a44.726,44.726,0,0,1,10.533,3.71H18.629a47.4,47.4,0,0,1,10.765-3.706,43.989,43.989,0,0,0,.338-16.381,31.837,31.837,0,0,0-3.611-6.675,11.249,11.249,0,0,0,1.458-1.367c.064-.073.128-.147.19-.221a31.147,31.147,0,0,1,3.79,6.774l.019-.007c.707-1.344,1.33-2.7,1.883-4.063a46,46,0,0,0-2.8-11.365,6.276,6.276,0,0,0,1.732-1.432m.215-22.524h-.09c-.236,0-.463.011-.687.025a9.72,9.72,0,0,0-7.65,4.095,10.7,10.7,0,0,0-4.379-.947,10.856,10.856,0,0,0-6.088,1.874c-3.441,2.32-4.935,5.949-4.052,9.554A12.215,12.215,0,0,0,5.07,68.569a13.407,13.407,0,0,0,1.063,8.459A7.241,7.241,0,0,0,8,86.358a6.955,6.955,0,0,0,4.52,1.741A7.266,7.266,0,0,0,14.3,87.87a10.108,10.108,0,0,0,4.786-3.042,15.1,15.1,0,0,0,4.885-1.268A30.328,30.328,0,0,1,26.794,88.9a40.759,40.759,0,0,1-.026,12.971,56.032,56.032,0,0,0-9.405,3.47,3.044,3.044,0,0,0,1.266,5.813H49.363a3.045,3.045,0,0,0,1.3-5.8,51.325,51.325,0,0,0-9.8-3.631,19.227,19.227,0,0,1-1.774-6.367,18.613,18.613,0,0,1,5.967-10.068,3.01,3.01,0,0,0,.432-.523,8.1,8.1,0,0,0,3.714.878,9.123,9.123,0,0,0,1.184-.078,10.611,10.611,0,0,0,7.061,3.868c.28.025.564.037.844.037a10.394,10.394,0,0,0,7.426-3.3A8.83,8.83,0,0,0,68.4,78.763,10.431,10.431,0,0,0,66.1,73.449a6.355,6.355,0,0,0,.823-4.576,5.648,5.648,0,0,0-2.8-4.044,14.716,14.716,0,0,0-7.042-13.265,16.823,16.823,0,0,0-9-2.559,18.524,18.524,0,0,0-7.1,1.433,12.122,12.122,0,0,0-7.765-3.277c-.2-.011-.406-.016-.607-.016Zm-.215,25.569h0Z"/><path class="cls-2" d="M56.2,122.675a1.523,1.523,0,0,1-.632-2.908,51.679,51.679,0,0,1,10.1-3.607,42.427,42.427,0,0,0,.166-14.655,30.254,30.254,0,0,0-3.355-6.195,1.515,1.515,0,0,1-.3-.77A13.3,13.3,0,0,1,55.921,96.4a8.9,8.9,0,0,1-4.429,3.039,5.755,5.755,0,0,1-1.4.183,5.411,5.411,0,0,1-3.548-1.389,5.776,5.776,0,0,1-1.12-8.065,12.368,12.368,0,0,1-1.3-8.209,11.055,11.055,0,0,1,4.886-6.589c-1.258-3.273-.053-6.727,3.128-8.87a9.328,9.328,0,0,1,5.236-1.614,9.09,9.09,0,0,1,4.458,1.166c.387.164.523.217.572.235l.053.021a1.526,1.526,0,0,1,.16-.483A8.083,8.083,0,0,1,69.5,61.73c.2-.012.4-.02.606-.021h.071c.207,0,.37,0,.534.012a10.51,10.51,0,0,1,7.479,3.584,17.239,17.239,0,0,1,7.46-1.738,15.308,15.308,0,0,1,8.183,2.324,13.274,13.274,0,0,1,6.253,12.993,3.977,3.977,0,0,1,2.91,3.316,4.652,4.652,0,0,1-1.333,4.335,9.275,9.275,0,0,1,2.8,5.441,7.261,7.261,0,0,1-2.263,6.16,8.9,8.9,0,0,1-6.346,2.856c-.236,0-.471-.011-.7-.031a9.164,9.164,0,0,1-6.578-4.01,7.94,7.94,0,0,1-1.805.214,6.3,6.3,0,0,1-4-1.356,5.185,5.185,0,0,1-1.944-4.048,1.558,1.558,0,0,1-.13.152,23.842,23.842,0,0,0-3.06,3.849q1.073-.54,2.309-1.032a1.522,1.522,0,0,1,1.622,2.508,20.234,20.234,0,0,0-6.448,11.067,20.625,20.625,0,0,0,2.28,7.787,47.858,47.858,0,0,1,10.191,3.683,1.523,1.523,0,0,1-.649,2.9Zm9.335-31.382a1.525,1.525,0,0,1,1,.573,26.3,26.3,0,0,1,2.614,4.18q.16-.369.316-.742a44.958,44.958,0,0,0-2.238-9.518A10.625,10.625,0,0,1,65.533,91.293Zm6.09-8.859c.38.934.728,1.886,1.045,2.864.033-.127.066-.251.1-.373a1.524,1.524,0,0,1,1.35-1.135c.041,0,.083-.005.124-.005a1.462,1.462,0,0,1,.21.015,10.872,10.872,0,0,1-.3-1.227,5.041,5.041,0,0,1-.822.064A8,8,0,0,1,71.623,82.434Z"/><path class="cls-1" d="M70.178,63.23q.226,0,.453.012A9.026,9.026,0,0,1,77.2,66.5l.573.714.816-.406a15.855,15.855,0,0,1,7.061-1.714,13.8,13.8,0,0,1,7.372,2.09,11.758,11.758,0,0,1,5.509,11.866l-.155,1.139,1.139.141a2.416,2.416,0,0,1,1.986,2.16,3.057,3.057,0,0,1-1.082,3.1l-1.143.813,1.033.949a7.931,7.931,0,0,1,2.643,4.8,5.78,5.78,0,0,1-1.831,4.913,7.411,7.411,0,0,1-5.265,2.407c-.191,0-.381-.009-.571-.026a7.864,7.864,0,0,1-5.631-3.592l-.459-.638-.756.2a6.512,6.512,0,0,1-1.672.227,4.744,4.744,0,0,1-3.036-1.009,3.882,3.882,0,0,1-1.269-4.059l.213-1.025-1-.3a8.865,8.865,0,0,1-6.083-7.31l-.19-1.287-1.249.361a3.015,3.015,0,0,1-.82.1,5.714,5.714,0,0,1-2.992-.822l-1.049-.817-.641,1.162a4.093,4.093,0,0,1-2.286,1.887l-.881.3.125.923a9.435,9.435,0,0,1-2.153,7.765,10.747,10.747,0,0,1-7.772,3.368l-.505.023-.323.394a7.485,7.485,0,0,1-3.733,2.658,4.164,4.164,0,0,1-1.031.137,3.929,3.929,0,0,1-2.572-1.037,4.313,4.313,0,0,1-.725-6.2l.4-.555-.3-.611a10.98,10.98,0,0,1-1.28-7.393c.5-2.155,1.906-4.1,4.511-5.848l.786-.523-.376-.87c-1.274-2.951.023-5.658,2.461-7.3A7.88,7.88,0,0,1,57.373,66.4a7.63,7.63,0,0,1,3.785,1.012,7.654,7.654,0,0,1,1.382.641H66.1L63.96,66.534A6.585,6.585,0,0,1,69.6,63.25c.171-.011.344-.018.516-.019h.067m-.215,19.48h.005m-.005,0h0c.053.026.106.051.16.075a44.152,44.152,0,0,1,2.475,8.32c.606-1.917,1.134-3.85,1.641-5.8a11.311,11.311,0,0,0,1.648,2.665c-.63,2.33-1.326,4.667-2.2,7a27.166,27.166,0,0,1,3.926-5.319,10.563,10.563,0,0,0,1.979,1.2A23.814,23.814,0,0,0,74.379,98.8c-.1.4-.2.812-.281,1.226a19.377,19.377,0,0,1,6.4-3.881,21.729,21.729,0,0,0-6.926,12.064,22.06,22.06,0,0,0,2.825,9.234,44.777,44.777,0,0,1,10.534,3.71H56.2a47.433,47.433,0,0,1,10.765-3.706,44.01,44.01,0,0,0,.338-16.381A31.84,31.84,0,0,0,63.69,94.39a11.059,11.059,0,0,0,1.459-1.367c.064-.072.127-.146.189-.22a31.1,31.1,0,0,1,3.79,6.774l.019-.008a44.5,44.5,0,0,0,1.883-4.063,45.992,45.992,0,0,0-2.8-11.364,6.271,6.271,0,0,0,1.731-1.432m.215-22.524h-.09c-.236,0-.463.011-.688.026a9.717,9.717,0,0,0-7.649,4.095,10.7,10.7,0,0,0-4.378-.948,10.857,10.857,0,0,0-6.089,1.874c-3.441,2.32-4.934,5.949-4.051,9.555A12.206,12.206,0,0,0,42.64,81.61,13.4,13.4,0,0,0,43.7,90.068,7.244,7.244,0,0,0,45.567,99.4a6.96,6.96,0,0,0,4.52,1.741,7.266,7.266,0,0,0,1.778-.229,10.119,10.119,0,0,0,4.787-3.042A15.124,15.124,0,0,0,61.536,96.6a30.266,30.266,0,0,1,2.827,5.342,40.793,40.793,0,0,1-.025,12.972,55.994,55.994,0,0,0-9.406,3.469A3.045,3.045,0,0,0,56.2,124.2H86.933a3.045,3.045,0,0,0,1.3-5.8,51.166,51.166,0,0,0-9.805-3.631,19.232,19.232,0,0,1-1.774-6.368,18.616,18.616,0,0,1,5.967-10.067,3.086,3.086,0,0,0,.432-.523,8.116,8.116,0,0,0,3.714.878,9.112,9.112,0,0,0,1.184-.078,10.61,10.61,0,0,0,7.061,3.867c.28.025.564.038.844.038a10.39,10.39,0,0,0,7.426-3.306,8.828,8.828,0,0,0,2.694-7.4,10.438,10.438,0,0,0-2.308-5.315,6.346,6.346,0,0,0,.823-4.575,5.65,5.65,0,0,0-2.8-4.044,14.719,14.719,0,0,0-7.043-13.265,16.815,16.815,0,0,0-9-2.56,18.529,18.529,0,0,0-7.1,1.434A12.123,12.123,0,0,0,70.785,60.2q-.3-.015-.607-.015Zm-.215,25.569h0Z"/></g></g></svg>