<svg xmlns="http://www.w3.org/2000/svg" viewBox="0 0 148.386 171.342"><defs><style>.cls-1{fill:#84839b;}.cls-2{fill:#52505f;}</style></defs><title>Tundra-Forest</title><g id="Layer_2" data-name="Layer 2"><g id="Layer_1-2" data-name="Layer 1"><polygon class="cls-1" points="1.417 127.688 1.417 43.654 74.194 1.637 146.969 43.654 146.969 127.688 74.194 169.705 1.417 127.688"/><path class="cls-2" d="M74.193,3.273l71.359,41.2v82.4l-71.359,41.2L2.835,126.87v-82.4l71.358-41.2m0-3.273L0,42.836v85.67l74.193,42.836,74.193-42.836V42.836L74.193,0Z"/><path class="cls-2" d="M110.816,40.479c-2.529,5.563-5.348,11.149-11.206,15.526a50.538,50.538,0,0,0,5.075,1.547c-2.219,3.4-6,6.621-9.459,9.514a43.444,43.444,0,0,0,6.021,2.546,55.05,55.05,0,0,1-9.441,11.352,48.782,48.782,0,0,0,9.059,3.965A71.864,71.864,0,0,1,87.749,98.773c9.369,4.821,17.646,7.058,25.868,6.8.328,0,.673.018,1,.018v-.055c7.258-.4,14.48-2.728,22.411-6.912-7.058-4.457-11.442-8.678-14.807-13.317a44.285,44.285,0,0,0,9.7-4.2A38.216,38.216,0,0,1,121.2,69.922a38.066,38.066,0,0,0,6.567-2.729c-4.22-2.656-8.022-5.876-10.314-9.35a39.783,39.783,0,0,0,5.73-1.71c-7-3.959-8.9-9.671-12.37-15.654Z"/><path class="cls-2" d="M108.687,108.669l-.491,12.807,7.822.109-1.109-12.716c-2.11,0-4.2-.054-6.222-.2Z"/><path class="cls-2" d="M38.133,107.013c-7.977,0-16-2.218-25.256-6.98a1.418,1.418,0,0,1-.261-2.348A73.09,73.09,0,0,0,24.361,85.65,52.437,52.437,0,0,1,16.893,82.2a1.418,1.418,0,0,1-.265-2.288,52.419,52.419,0,0,0,8.226-9.576,45.181,45.181,0,0,1-4.5-2.012,1.418,1.418,0,0,1-.262-2.348A59.694,59.694,0,0,0,28.11,58.37a22.076,22.076,0,0,1-3.321-1.08,1.417,1.417,0,0,1-.251-2.42c5.532-4.133,8.248-9.443,10.764-14.977a1.419,1.419,0,0,1,1.22-.829h.071a1.417,1.417,0,0,1,1.226.7c.678,1.17,1.3,2.328,1.9,3.448C42.207,47.877,44.36,51.9,49.659,54.9a1.417,1.417,0,0,1-.092,2.515,23.144,23.144,0,0,1-3.943,1.28,36.142,36.142,0,0,0,8.678,7.3,1.417,1.417,0,0,1-.1,2.454,40.8,40.8,0,0,1-5.015,2.227A35.914,35.914,0,0,0,58.5,79.941a1.416,1.416,0,0,1-.094,2.4,47.079,47.079,0,0,1-8.061,3.714A51.126,51.126,0,0,0,63.563,97.429a1.418,1.418,0,0,1-.1,2.452c-8.241,4.348-15.441,6.595-22.621,7.052a1.309,1.309,0,0,1-.451.079c-.177,0-.359,0-.54-.01-.156,0-.311-.008-.461-.008-.391.012-.824.019-1.259.019Z"/><path class="cls-1" d="M36.592,40.479c3.475,5.983,5.367,11.7,12.37,15.654a39.708,39.708,0,0,1-5.73,1.71c2.292,3.474,6.094,6.694,10.315,9.35a38.066,38.066,0,0,1-6.567,2.729A38.225,38.225,0,0,0,57.694,81.109a44.265,44.265,0,0,1-9.7,4.2c3.366,4.639,7.75,8.86,14.808,13.317-7.931,4.184-15.153,6.512-22.412,6.912v.055c-.327,0-.673-.018-1-.018q-.63.02-1.26.019c-7.81,0-15.718-2.249-24.608-6.823A71.864,71.864,0,0,0,26.642,84.929a48.724,48.724,0,0,1-9.059-3.965,55.05,55.05,0,0,0,9.441-11.352A43.506,43.506,0,0,1,21,67.066c3.457-2.893,7.241-6.113,9.46-9.514a50.459,50.459,0,0,1-5.075-1.547c5.857-4.377,8.677-9.963,11.2-15.526m0-2.835c-.047,0-.094,0-.142,0a2.834,2.834,0,0,0-2.439,1.658c-2.436,5.359-5.059,10.5-10.322,14.429a2.834,2.834,0,0,0,.5,4.84,12.912,12.912,0,0,0,1.384.535,76.136,76.136,0,0,1-6.391,5.782,2.834,2.834,0,0,0,.525,4.7q1.461.751,2.968,1.4a50.387,50.387,0,0,1-7,7.884A2.835,2.835,0,0,0,16.2,83.44a55.311,55.311,0,0,0,5.867,2.841A74.755,74.755,0,0,1,11.708,96.6a2.834,2.834,0,0,0,.521,4.7c9.463,4.869,17.694,7.137,25.905,7.137.434,0,.866-.007,1.3-.02.126,0,.255,0,.384.008.194.006.388.01.576.01a2.852,2.852,0,0,0,.727-.093c7.322-.5,14.652-2.794,23.008-7.2a2.835,2.835,0,0,0,.191-4.9,51.933,51.933,0,0,1-11.6-9.554,49.775,49.775,0,0,0,6.394-3.112,2.834,2.834,0,0,0,.188-4.793,34.2,34.2,0,0,1-7.872-7.449q1.725-.721,3.438-1.62a2.835,2.835,0,0,0,.193-4.909,38.626,38.626,0,0,1-6.846-5.351,15.828,15.828,0,0,0,1.96-.746,2.835,2.835,0,0,0,.186-5.032c-4.942-2.793-7-6.65-9.391-11.116-.605-1.131-1.23-2.3-1.922-3.494a2.836,2.836,0,0,0-2.451-1.411Z"/><path class="cls-2" d="M34.464,108.669l-.491,12.807,7.822.109-1.11-12.716c-2.11,0-4.2-.054-6.221-.2Z"/><path class="cls-2" d="M73.7,49.757C71.176,55.32,68.356,60.906,62.5,65.283a50.209,50.209,0,0,0,5.076,1.546c-2.22,3.4-6,6.622-9.46,9.515a43.566,43.566,0,0,0,6.021,2.546,55.018,55.018,0,0,1-9.441,11.352,48.915,48.915,0,0,0,9.059,3.965,71.886,71.886,0,0,1-13.115,13.844c9.368,4.821,17.645,7.058,25.868,6.8.327,0,.673.018,1,.018v-.055c7.258-.4,14.48-2.729,22.412-6.913-7.058-4.456-11.443-8.677-14.808-13.316a44.333,44.333,0,0,0,9.7-4.2A38.229,38.229,0,0,1,84.091,79.2a38.145,38.145,0,0,0,6.567-2.729c-4.22-2.656-8.022-5.876-10.314-9.35a39.708,39.708,0,0,0,5.73-1.71c-7-3.959-8.895-9.671-12.37-15.654Z"/><path class="cls-2" d="M71.576,117.947l-.491,12.807,7.822.109L77.8,118.147c-2.11,0-4.2-.054-6.221-.2Z"/><path class="cls-2" d="M73.7,49.757C71.176,55.32,68.356,60.906,62.5,65.283a50.209,50.209,0,0,0,5.076,1.546c-2.22,3.4-6,6.622-9.46,9.515a43.566,43.566,0,0,0,6.021,2.546,55.018,55.018,0,0,1-9.441,11.352,48.915,48.915,0,0,0,9.059,3.965,71.886,71.886,0,0,1-13.115,13.844c9.368,4.821,17.645,7.058,25.868,6.8.327,0,.673.018,1,.018v-.055c7.258-.4,14.48-2.729,22.412-6.913-7.058-4.456-11.443-8.677-14.808-13.316a44.333,44.333,0,0,0,9.7-4.2A38.229,38.229,0,0,1,84.091,79.2a38.145,38.145,0,0,0,6.567-2.729c-4.22-2.656-8.022-5.876-10.314-9.35a39.708,39.708,0,0,0,5.73-1.71c-7-3.959-8.895-9.671-12.37-15.654Z"/><path class="cls-2" d="M71.576,117.947l-.491,12.807,7.822.109L77.8,118.147c-2.11,0-4.2-.054-6.221-.2Z"/><path class="cls-1" d="M73.7,49.757c3.475,5.983,5.367,11.7,12.37,15.654a39.708,39.708,0,0,1-5.73,1.71c2.292,3.474,6.094,6.694,10.314,9.35A38.112,38.112,0,0,1,84.091,79.2,38.229,38.229,0,0,0,94.806,90.387a44.333,44.333,0,0,1-9.7,4.2c3.365,4.639,7.75,8.86,14.808,13.316-7.932,4.184-15.154,6.513-22.412,6.913v.055c-.327,0-.673-.019-1-.019q-.63.02-1.26.02c-7.811,0-15.719-2.249-24.608-6.823A71.886,71.886,0,0,0,63.753,94.207a48.915,48.915,0,0,1-9.059-3.965A55.018,55.018,0,0,0,64.135,78.89a43.566,43.566,0,0,1-6.021-2.546c3.457-2.893,7.24-6.113,9.46-9.515A50.209,50.209,0,0,1,62.5,65.283c5.858-4.377,8.678-9.963,11.206-15.526m0-2.835c-.047,0-.094,0-.142,0a2.833,2.833,0,0,0-2.439,1.658c-2.437,5.359-5.059,10.5-10.322,14.428a2.836,2.836,0,0,0,.5,4.841,13.014,13.014,0,0,0,1.385.535A76.293,76.293,0,0,1,56.3,74.17a2.834,2.834,0,0,0,.524,4.695q1.461.75,2.969,1.4a50.387,50.387,0,0,1-7,7.884,2.834,2.834,0,0,0,.528,4.573,55.186,55.186,0,0,0,5.866,2.84,74.593,74.593,0,0,1-10.362,10.318,2.835,2.835,0,0,0,.522,4.7c9.463,4.869,17.694,7.137,25.9,7.137q.65,0,1.3-.02c.126,0,.255.005.384.008.194,0,.388.01.577.01a2.8,2.8,0,0,0,.726-.094c7.323-.5,14.653-2.793,23.008-7.2a2.835,2.835,0,0,0,.191-4.9,51.96,51.96,0,0,1-11.6-9.554,49.648,49.648,0,0,0,6.394-3.112,2.835,2.835,0,0,0,.189-4.793A34.175,34.175,0,0,1,88.538,80.6c1.149-.481,2.3-1.022,3.438-1.62a2.834,2.834,0,0,0,.192-4.909,38.663,38.663,0,0,1-6.845-5.351,15.889,15.889,0,0,0,1.96-.746,2.835,2.835,0,0,0,.186-5.032c-4.942-2.793-7-6.65-9.391-11.116-.605-1.132-1.23-2.3-1.923-3.494a2.833,2.833,0,0,0-2.45-1.411Z"/><path class="cls-1" d="M71.576,117.947c2.019.146,4.111.2,6.221.2l1.11,12.716-7.822-.109.491-12.807m0-2.835a2.836,2.836,0,0,0-2.833,2.726l-.491,12.807a2.834,2.834,0,0,0,2.793,2.943l7.822.109h.04a2.836,2.836,0,0,0,2.824-3.082L80.621,117.9a2.835,2.835,0,0,0-2.824-2.589c-2.249,0-4.218-.063-6.017-.192-.069-.005-.137-.008-.2-.008Z"/></g></g></svg>