<svg xmlns="http://www.w3.org/2000/svg" viewBox="0 0 148.386 171.342"><defs><style>.cls-1{fill:#009dff;}.cls-2,.cls-3{fill:#006294;}.cls-3,.cls-4,.cls-5{stroke:#006294;stroke-linecap:round;stroke-linejoin:round;stroke-width:2.835px;}.cls-4{fill:#fff;}.cls-5{fill:none;}</style></defs><title>Iceberg</title><g id="Layer_2" data-name="Layer 2"><g id="Layer_1-2" data-name="Layer 1"><polygon class="cls-1" points="1.417 127.688 1.417 43.654 74.193 1.636 146.97 43.654 146.97 127.688 74.193 169.705 1.417 127.688"/><path class="cls-2" d="M74.193,3.273l71.359,41.2v82.4l-71.359,41.2L2.835,126.87v-82.4l71.358-41.2m0-3.273L0,42.835v85.671l74.193,42.836,74.193-42.836V42.835L74.193,0Z"/><path class="cls-3" d="M118.859,89.851v11.06l-9.12,1.9-6.08,16.23-7.38,2.29-7.82,16.72-6.94-1.8-7.33,8.03-10.26-23.77-8.68,2.46-7.17-9.84-8.47-2.95L36.359,95.7l-6.08-1.95.88-4.41a17.665,17.665,0,0,0,9.03-6.7c3.1,4.77,9.55,8.05,17,8.05s13.9-3.28,17.01-8.05c3.1,4.77,9.55,8.05,17,8.05s13.9-3.28,17.01-8.05A18.132,18.132,0,0,0,118.859,89.851Z"/><path class="cls-4" d="M118.859,64.221v25.63a18.132,18.132,0,0,1-10.65-7.21c-3.11,4.77-9.56,8.05-17.01,8.05s-13.9-3.28-17-8.05c-3.11,4.77-9.56,8.05-17.01,8.05s-13.9-3.28-17-8.05a17.665,17.665,0,0,1-9.03,6.7l5.85-29.46,14.54,3.25,7.82-19.97,19.11,2.82,8.03,6.95,13.02-6.08,7.82,15.85Z"/><path class="cls-5" d="M31.159,89.341a23.691,23.691,0,0,1-7.98,1.35"/><line class="cls-5" x1="40.189" y1="82.641" x2="40.189" y2="82.631"/><path class="cls-5" d="M125.209,90.691a23.758,23.758,0,0,1-6.35-.84"/></g></g></svg>